<?xml version="1.0" encoding="UTF-8" standalone="no"?>
<!DOCTYPE svg PUBLIC "-//W3C//DTD SVG 1.1//EN"
 "http://www.w3.org/Graphics/SVG/1.1/DTD/svg11.dtd">
<!-- Generated by graphviz version 2.40.1 (20161225.0304)
 -->
<!-- Title: dependencies Pages: 1 -->
<svg width="5472pt" height="211pt"
 viewBox="0.00 0.00 5472.00 211.00" xmlns="http://www.w3.org/2000/svg" xmlns:xlink="http://www.w3.org/1999/xlink">
<g id="graph0" class="graph" transform="scale(1 1) rotate(0) translate(4 207)">
<title>dependencies</title>
<polygon fill="#ffffff" stroke="transparent" points="-4,4 -4,-207 5468,-207 5468,4 -4,4"/>
<text text-anchor="start" x="2711.0091" y="-42.4" font-family="sans-serif" font-weight="bold" font-size="14.00" fill="#000000">Legend</text>
<polygon fill="#ffffb3" stroke="transparent" points="2498,-10 2498,-30 2518,-30 2518,-10 2498,-10"/>
<text text-anchor="start" x="2521.629" y="-15.4" font-family="sans-serif" font-size="14.00" fill="#000000"> &#160;Declarations</text>
<polygon fill="#8dd3c7" stroke="transparent" points="2611,-10 2611,-30 2631,-30 2631,-10 2611,-10"/>
<text text-anchor="start" x="2634.7251" y="-15.4" font-family="sans-serif" font-size="14.00" fill="#000000"> &#160;Module</text>
<polygon fill="#80b1d3" stroke="transparent" points="2697,-10 2697,-30 2717,-30 2717,-10 2697,-10"/>
<text text-anchor="start" x="2720.7812" y="-15.4" font-family="sans-serif" font-size="14.00" fill="#000000"> &#160;Bootstrap</text>
<polygon fill="#fdb462" stroke="transparent" points="2794,-10 2794,-30 2814,-30 2814,-10 2794,-10"/>
<text text-anchor="start" x="2817.6732" y="-15.4" font-family="sans-serif" font-size="14.00" fill="#000000"> &#160;Providers</text>
<polygon fill="#fb8072" stroke="transparent" points="2890,-10 2890,-30 2910,-30 2910,-10 2890,-10"/>
<text text-anchor="start" x="2913.7258" y="-15.4" font-family="sans-serif" font-size="14.00" fill="#000000"> &#160;Exports</text>
<g id="clust1" class="cluster">
<title>cluster_AssistantPanelModule</title>
<polygon fill="none" stroke="#000000" stroke-dasharray="1,5" points="8,-70 8,-195 5456,-195 5456,-70 8,-70"/>
</g>
<g id="clust2" class="cluster">
<title>cluster_AssistantPanelModule_declarations</title>
<polygon fill="none" stroke="#000000" points="931,-78 931,-130 5448,-130 5448,-78 931,-78"/>
</g>
<g id="clust28" class="cluster">
<title>cluster_AssistantPanelModule_imports</title>
<polygon fill="none" stroke="#000000" points="16,-78 16,-130 923,-130 923,-78 16,-78"/>
</g>
<!-- AssistantPanelComponent -->
<g id="node1" class="node">
<title>AssistantPanelComponent</title>
<polygon fill="#ffffb3" stroke="#000000" points="5439.7618,-122 5276.2382,-122 5276.2382,-86 5439.7618,-86 5439.7618,-122"/>
<text text-anchor="middle" x="5358" y="-99.8" font-family="Times,serif" font-size="14.00" fill="#000000">AssistantPanelComponent</text>
</g>
<!-- AssistantPanelModule -->
<g id="node26" class="node">
<title>AssistantPanelModule</title>
<polygon fill="#8dd3c7" stroke="#000000" points="2600.979,-187 2597.979,-191 2576.979,-191 2573.979,-187 2459.021,-187 2459.021,-151 2600.979,-151 2600.979,-187"/>
<text text-anchor="middle" x="2530" y="-164.8" font-family="Times,serif" font-size="14.00" fill="#000000">AssistantPanelModule</text>
</g>
<!-- AssistantPanelComponent&#45;&gt;AssistantPanelModule -->
<g id="edge1" class="edge">
<title>AssistantPanelComponent&#45;&gt;AssistantPanelModule</title>
<path fill="none" stroke="#000000" d="M5358,-122.3802C5358,-146.2785 5358,-185 5358,-185 5358,-185 2611.3204,-185 2611.3204,-185"/>
<polygon fill="#000000" stroke="#000000" points="2611.3204,-181.5001 2601.3204,-185 2611.3204,-188.5001 2611.3204,-181.5001"/>
</g>
<!-- DepartmentsListComponent -->
<g id="node2" class="node">
<title>DepartmentsListComponent</title>
<polygon fill="#ffffb3" stroke="#000000" points="5258.1386,-122 5083.8614,-122 5083.8614,-86 5258.1386,-86 5258.1386,-122"/>
<text text-anchor="middle" x="5171" y="-99.8" font-family="Times,serif" font-size="14.00" fill="#000000">DepartmentsListComponent</text>
</g>
<!-- DepartmentsListComponent&#45;&gt;AssistantPanelModule -->
<g id="edge2" class="edge">
<title>DepartmentsListComponent&#45;&gt;AssistantPanelModule</title>
<path fill="none" stroke="#000000" d="M5171,-122.3228C5171,-145.6602 5171,-183 5171,-183 5171,-183 2610.9817,-183 2610.9817,-183"/>
<polygon fill="#000000" stroke="#000000" points="2610.9817,-179.5001 2600.9817,-183 2610.9816,-186.5001 2610.9817,-179.5001"/>
</g>
<!-- DivisionsListComponent -->
<g id="node3" class="node">
<title>DivisionsListComponent</title>
<polygon fill="#ffffb3" stroke="#000000" points="5065.2786,-122 4908.7214,-122 4908.7214,-86 5065.2786,-86 5065.2786,-122"/>
<text text-anchor="middle" x="4987" y="-99.8" font-family="Times,serif" font-size="14.00" fill="#000000">DivisionsListComponent</text>
</g>
<!-- DivisionsListComponent&#45;&gt;AssistantPanelModule -->
<g id="edge3" class="edge">
<title>DivisionsListComponent&#45;&gt;AssistantPanelModule</title>
<path fill="none" stroke="#000000" d="M4987,-122.2479C4987,-145.0179 4987,-181 4987,-181 4987,-181 2611.2122,-181 2611.2122,-181"/>
<polygon fill="#000000" stroke="#000000" points="2611.2123,-177.5001 2601.2122,-181 2611.2122,-184.5001 2611.2123,-177.5001"/>
</g>
<!-- GroupsListComponent -->
<g id="node4" class="node">
<title>GroupsListComponent</title>
<polygon fill="#ffffb3" stroke="#000000" points="4890.323,-122 4745.677,-122 4745.677,-86 4890.323,-86 4890.323,-122"/>
<text text-anchor="middle" x="4818" y="-99.8" font-family="Times,serif" font-size="14.00" fill="#000000">GroupsListComponent</text>
</g>
<!-- GroupsListComponent&#45;&gt;AssistantPanelModule -->
<g id="edge4" class="edge">
<title>GroupsListComponent&#45;&gt;AssistantPanelModule</title>
<path fill="none" stroke="#000000" d="M4818,-122.2921C4818,-144.2057 4818,-178 4818,-178 4818,-178 2610.9842,-178 2610.9842,-178"/>
<polygon fill="#000000" stroke="#000000" points="2610.9843,-174.5001 2600.9842,-178 2610.9842,-181.5001 2610.9843,-174.5001"/>
</g>
<!-- StudentsListComponent -->
<g id="node5" class="node">
<title>StudentsListComponent</title>
<polygon fill="#ffffb3" stroke="#000000" points="4727.8342,-122 4576.1658,-122 4576.1658,-86 4727.8342,-86 4727.8342,-122"/>
<text text-anchor="middle" x="4652" y="-99.8" font-family="Times,serif" font-size="14.00" fill="#000000">StudentsListComponent</text>
</g>
<!-- StudentsListComponent&#45;&gt;AssistantPanelModule -->
<g id="edge5" class="edge">
<title>StudentsListComponent&#45;&gt;AssistantPanelModule</title>
<path fill="none" stroke="#000000" d="M4652,-122.1686C4652,-143.498 4652,-176 4652,-176 4652,-176 2611.2095,-176 2611.2095,-176"/>
<polygon fill="#000000" stroke="#000000" points="2611.2095,-172.5001 2601.2095,-176 2611.2095,-179.5001 2611.2095,-172.5001"/>
</g>
<!-- PanelOptionsComponent -->
<g id="node6" class="node">
<title>PanelOptionsComponent</title>
<polygon fill="#ffffb3" stroke="#000000" points="4558.2674,-122 4401.7326,-122 4401.7326,-86 4558.2674,-86 4558.2674,-122"/>
<text text-anchor="middle" x="4480" y="-99.8" font-family="Times,serif" font-size="14.00" fill="#000000">PanelOptionsComponent</text>
</g>
<!-- PanelOptionsComponent&#45;&gt;AssistantPanelModule -->
<g id="edge6" class="edge">
<title>PanelOptionsComponent&#45;&gt;AssistantPanelModule</title>
<path fill="none" stroke="#000000" d="M4480,-122.0267C4480,-142.7672 4480,-174 4480,-174 4480,-174 2611.1328,-174 2611.1328,-174"/>
<polygon fill="#000000" stroke="#000000" points="2611.1328,-170.5001 2601.1328,-174 2611.1327,-177.5001 2611.1328,-170.5001"/>
</g>
<!-- DepartmentOptionsComponent -->
<g id="node7" class="node">
<title>DepartmentOptionsComponent</title>
<polygon fill="#ffffb3" stroke="#000000" points="4383.7478,-122 4192.2522,-122 4192.2522,-86 4383.7478,-86 4383.7478,-122"/>
<text text-anchor="middle" x="4288" y="-99.8" font-family="Times,serif" font-size="14.00" fill="#000000">DepartmentOptionsComponent</text>
</g>
<!-- DepartmentOptionsComponent&#45;&gt;AssistantPanelModule -->
<g id="edge7" class="edge">
<title>DepartmentOptionsComponent&#45;&gt;AssistantPanelModule</title>
<path fill="none" stroke="#000000" d="M4288,-122.2228C4288,-142.3652 4288,-172 4288,-172 4288,-172 2611.093,-172 2611.093,-172"/>
<polygon fill="#000000" stroke="#000000" points="2611.0931,-168.5001 2601.093,-172 2611.093,-175.5001 2611.0931,-168.5001"/>
</g>
<!-- DivisionOptionsComponent -->
<g id="node8" class="node">
<title>DivisionOptionsComponent</title>
<polygon fill="#ffffb3" stroke="#000000" points="4173.8878,-122 4000.1122,-122 4000.1122,-86 4173.8878,-86 4173.8878,-122"/>
<text text-anchor="middle" x="4087" y="-99.8" font-family="Times,serif" font-size="14.00" fill="#000000">DivisionOptionsComponent</text>
</g>
<!-- DivisionOptionsComponent&#45;&gt;AssistantPanelModule -->
<g id="edge8" class="edge">
<title>DivisionOptionsComponent&#45;&gt;AssistantPanelModule</title>
<path fill="none" stroke="#000000" d="M4087,-122.1061C4087,-141.3391 4087,-169 4087,-169 4087,-169 2611.2033,-169 2611.2033,-169"/>
<polygon fill="#000000" stroke="#000000" points="2611.2033,-165.5001 2601.2033,-169 2611.2032,-172.5001 2611.2033,-165.5001"/>
</g>
<!-- GroupOptionsComponent -->
<g id="node9" class="node">
<title>GroupOptionsComponent</title>
<polygon fill="#ffffb3" stroke="#000000" points="3981.9326,-122 3820.0674,-122 3820.0674,-86 3981.9326,-86 3981.9326,-122"/>
<text text-anchor="middle" x="3901" y="-99.8" font-family="Times,serif" font-size="14.00" fill="#000000">GroupOptionsComponent</text>
</g>
<!-- GroupOptionsComponent&#45;&gt;AssistantPanelModule -->
<g id="edge9" class="edge">
<title>GroupOptionsComponent&#45;&gt;AssistantPanelModule</title>
<path fill="none" stroke="#000000" d="M3901,-122.2222C3901,-140.8285 3901,-167 3901,-167 3901,-167 2611.3016,-167 2611.3016,-167"/>
<polygon fill="#000000" stroke="#000000" points="2611.3016,-163.5001 2601.3016,-167 2611.3015,-170.5001 2611.3016,-163.5001"/>
</g>
<!-- StudentOptionsComponent -->
<g id="node10" class="node">
<title>StudentOptionsComponent</title>
<polygon fill="#ffffb3" stroke="#000000" points="3802.4438,-122 3633.5562,-122 3633.5562,-86 3802.4438,-86 3802.4438,-122"/>
<text text-anchor="middle" x="3718" y="-99.8" font-family="Times,serif" font-size="14.00" fill="#000000">StudentOptionsComponent</text>
</g>
<!-- StudentOptionsComponent&#45;&gt;AssistantPanelModule -->
<g id="edge10" class="edge">
<title>StudentOptionsComponent&#45;&gt;AssistantPanelModule</title>
<path fill="none" stroke="#000000" d="M3718,-122.302C3718,-140.2699 3718,-165 3718,-165 3718,-165 2611.1976,-165 2611.1976,-165"/>
<polygon fill="#000000" stroke="#000000" points="2611.1976,-161.5001 2601.1976,-165 2611.1976,-168.5001 2611.1976,-161.5001"/>
</g>
<!-- StudentFinderComponent -->
<g id="node11" class="node">
<title>StudentFinderComponent</title>
<polygon fill="#ffffb3" stroke="#000000" points="3615.1596,-122 3454.8404,-122 3454.8404,-86 3615.1596,-86 3615.1596,-122"/>
<text text-anchor="middle" x="3535" y="-99.8" font-family="Times,serif" font-size="14.00" fill="#000000">StudentFinderComponent</text>
</g>
<!-- StudentFinderComponent&#45;&gt;AssistantPanelModule -->
<g id="edge11" class="edge">
<title>StudentFinderComponent&#45;&gt;AssistantPanelModule</title>
<path fill="none" stroke="#000000" d="M3535,-122.0225C3535,-139.3734 3535,-163 3535,-163 3535,-163 2611.0701,-163 2611.0701,-163"/>
<polygon fill="#000000" stroke="#000000" points="2611.0701,-159.5001 2601.0701,-163 2611.07,-166.5001 2611.0701,-159.5001"/>
</g>
<!-- DivisionCreatorComponent -->
<g id="node12" class="node">
<title>DivisionCreatorComponent</title>
<polygon fill="#ffffb3" stroke="#000000" points="3436.5336,-122 3265.4664,-122 3265.4664,-86 3436.5336,-86 3436.5336,-122"/>
<text text-anchor="middle" x="3351" y="-99.8" font-family="Times,serif" font-size="14.00" fill="#000000">DivisionCreatorComponent</text>
</g>
<!-- DivisionCreatorComponent&#45;&gt;AssistantPanelModule -->
<g id="edge12" class="edge">
<title>DivisionCreatorComponent&#45;&gt;AssistantPanelModule</title>
<path fill="none" stroke="#000000" d="M3351,-122.027C3351,-138.3976 3351,-160 3351,-160 3351,-160 2611.065,-160 2611.065,-160"/>
<polygon fill="#000000" stroke="#000000" points="2611.065,-156.5001 2601.065,-160 2611.065,-163.5001 2611.065,-156.5001"/>
</g>
<!-- DeleteDivisionComponent -->
<g id="node13" class="node">
<title>DeleteDivisionComponent</title>
<polygon fill="#ffffb3" stroke="#000000" points="3247.087,-122 3080.913,-122 3080.913,-86 3247.087,-86 3247.087,-122"/>
<text text-anchor="middle" x="3164" y="-99.8" font-family="Times,serif" font-size="14.00" fill="#000000">DeleteDivisionComponent</text>
</g>
<!-- DeleteDivisionComponent&#45;&gt;AssistantPanelModule -->
<g id="edge13" class="edge">
<title>DeleteDivisionComponent&#45;&gt;AssistantPanelModule</title>
<path fill="none" stroke="#000000" d="M3164,-122.2819C3164,-137.9478 3164,-158 3164,-158 3164,-158 2611.1887,-158 2611.1887,-158"/>
<polygon fill="#000000" stroke="#000000" points="2611.1887,-154.5001 2601.1887,-158 2611.1886,-161.5001 2611.1887,-154.5001"/>
</g>
<!-- MassGroupEditComponent -->
<g id="node14" class="node">
<title>MassGroupEditComponent</title>
<polygon fill="#ffffb3" stroke="#000000" points="3062.9818,-122 2893.0182,-122 2893.0182,-86 3062.9818,-86 3062.9818,-122"/>
<text text-anchor="middle" x="2978" y="-99.8" font-family="Times,serif" font-size="14.00" fill="#000000">MassGroupEditComponent</text>
</g>
<!-- MassGroupEditComponent&#45;&gt;AssistantPanelModule -->
<g id="edge14" class="edge">
<title>MassGroupEditComponent&#45;&gt;AssistantPanelModule</title>
<path fill="none" stroke="#000000" d="M2978,-122.1871C2978,-137.1824 2978,-156 2978,-156 2978,-156 2610.9869,-156 2610.9869,-156"/>
<polygon fill="#000000" stroke="#000000" points="2610.987,-152.5001 2600.9869,-156 2610.9869,-159.5001 2610.987,-152.5001"/>
</g>
<!-- ExportDivisionComponent -->
<g id="node15" class="node">
<title>ExportDivisionComponent</title>
<polygon fill="#ffffb3" stroke="#000000" points="2874.6595,-122 2707.3405,-122 2707.3405,-86 2874.6595,-86 2874.6595,-122"/>
<text text-anchor="middle" x="2791" y="-99.8" font-family="Times,serif" font-size="14.00" fill="#000000">ExportDivisionComponent</text>
</g>
<!-- ExportDivisionComponent&#45;&gt;AssistantPanelModule -->
<g id="edge15" class="edge">
<title>ExportDivisionComponent&#45;&gt;AssistantPanelModule</title>
<path fill="none" stroke="#000000" d="M2791,-122.0511C2791,-136.373 2791,-154 2791,-154 2791,-154 2611.3194,-154 2611.3194,-154"/>
<polygon fill="#000000" stroke="#000000" points="2611.3194,-150.5001 2601.3194,-154 2611.3194,-157.5001 2611.3194,-150.5001"/>
</g>
<!-- EditDivisionComponent -->
<g id="node16" class="node">
<title>EditDivisionComponent</title>
<polygon fill="#ffffb3" stroke="#000000" points="2689.3892,-122 2536.6108,-122 2536.6108,-86 2689.3892,-86 2689.3892,-122"/>
<text text-anchor="middle" x="2613" y="-99.8" font-family="Times,serif" font-size="14.00" fill="#000000">EditDivisionComponent</text>
</g>
<!-- EditDivisionComponent&#45;&gt;AssistantPanelModule -->
<g id="edge16" class="edge">
<title>EditDivisionComponent&#45;&gt;AssistantPanelModule</title>
<path fill="none" stroke="#000000" d="M2568.7725,-122.1061C2568.7725,-122.1061 2568.7725,-140.991 2568.7725,-140.991"/>
<polygon fill="#000000" stroke="#000000" points="2565.2725,-140.9909 2568.7725,-150.991 2572.2725,-140.991 2565.2725,-140.9909"/>
</g>
<!-- EditGroupComponent -->
<g id="node17" class="node">
<title>EditGroupComponent</title>
<polygon fill="#ffffb3" stroke="#000000" points="2518.4341,-122 2377.5659,-122 2377.5659,-86 2518.4341,-86 2518.4341,-122"/>
<text text-anchor="middle" x="2448" y="-99.8" font-family="Times,serif" font-size="14.00" fill="#000000">EditGroupComponent</text>
</g>
<!-- EditGroupComponent&#45;&gt;AssistantPanelModule -->
<g id="edge17" class="edge">
<title>EditGroupComponent&#45;&gt;AssistantPanelModule</title>
<path fill="none" stroke="#000000" d="M2488.6136,-122.1061C2488.6136,-122.1061 2488.6136,-140.991 2488.6136,-140.991"/>
<polygon fill="#000000" stroke="#000000" points="2485.1137,-140.9909 2488.6136,-150.991 2492.1137,-140.991 2485.1137,-140.9909"/>
</g>
<!-- DeleteGroupComponent -->
<g id="node18" class="node">
<title>DeleteGroupComponent</title>
<polygon fill="#ffffb3" stroke="#000000" points="2359.6316,-122 2206.3684,-122 2206.3684,-86 2359.6316,-86 2359.6316,-122"/>
<text text-anchor="middle" x="2283" y="-99.8" font-family="Times,serif" font-size="14.00" fill="#000000">DeleteGroupComponent</text>
</g>
<!-- DeleteGroupComponent&#45;&gt;AssistantPanelModule -->
<g id="edge18" class="edge">
<title>DeleteGroupComponent&#45;&gt;AssistantPanelModule</title>
<path fill="none" stroke="#000000" d="M2283,-122.0511C2283,-136.373 2283,-154 2283,-154 2283,-154 2448.8887,-154 2448.8887,-154"/>
<polygon fill="#000000" stroke="#000000" points="2448.8888,-157.5001 2458.8887,-154 2448.8887,-150.5001 2448.8888,-157.5001"/>
</g>
<!-- AddAnnouncementComponent -->
<g id="node19" class="node">
<title>AddAnnouncementComponent</title>
<polygon fill="#ffffb3" stroke="#000000" points="2188.4706,-122 1997.5294,-122 1997.5294,-86 2188.4706,-86 2188.4706,-122"/>
<text text-anchor="middle" x="2093" y="-99.8" font-family="Times,serif" font-size="14.00" fill="#000000">AddAnnouncementComponent</text>
</g>
<!-- AddAnnouncementComponent&#45;&gt;AssistantPanelModule -->
<g id="edge19" class="edge">
<title>AddAnnouncementComponent&#45;&gt;AssistantPanelModule</title>
<path fill="none" stroke="#000000" d="M2093,-122.1871C2093,-137.1824 2093,-156 2093,-156 2093,-156 2448.8158,-156 2448.8158,-156"/>
<polygon fill="#000000" stroke="#000000" points="2448.8158,-159.5001 2458.8158,-156 2448.8158,-152.5001 2448.8158,-159.5001"/>
</g>
<!-- CancelClassComponent -->
<g id="node20" class="node">
<title>CancelClassComponent</title>
<polygon fill="#ffffb3" stroke="#000000" points="1979.0351,-122 1828.9649,-122 1828.9649,-86 1979.0351,-86 1979.0351,-122"/>
<text text-anchor="middle" x="1904" y="-99.8" font-family="Times,serif" font-size="14.00" fill="#000000">CancelClassComponent</text>
</g>
<!-- CancelClassComponent&#45;&gt;AssistantPanelModule -->
<g id="edge20" class="edge">
<title>CancelClassComponent&#45;&gt;AssistantPanelModule</title>
<path fill="none" stroke="#000000" d="M1904,-122.2819C1904,-137.9478 1904,-158 1904,-158 1904,-158 2448.7993,-158 2448.7993,-158"/>
<polygon fill="#000000" stroke="#000000" points="2448.7993,-161.5001 2458.7993,-158 2448.7993,-154.5001 2448.7993,-161.5001"/>
</g>
<!-- AddActivityComponent -->
<g id="node21" class="node">
<title>AddActivityComponent</title>
<polygon fill="#ffffb3" stroke="#000000" points="1810.8229,-122 1659.1771,-122 1659.1771,-86 1810.8229,-86 1810.8229,-122"/>
<text text-anchor="middle" x="1735" y="-99.8" font-family="Times,serif" font-size="14.00" fill="#000000">AddActivityComponent</text>
</g>
<!-- AddActivityComponent&#45;&gt;AssistantPanelModule -->
<g id="edge21" class="edge">
<title>AddActivityComponent&#45;&gt;AssistantPanelModule</title>
<path fill="none" stroke="#000000" d="M1735,-122.027C1735,-138.3976 1735,-160 1735,-160 1735,-160 2448.7494,-160 2448.7494,-160"/>
<polygon fill="#000000" stroke="#000000" points="2448.7494,-163.5001 2458.7494,-160 2448.7494,-156.5001 2448.7494,-163.5001"/>
</g>
<!-- KickStudentComponent -->
<g id="node22" class="node">
<title>KickStudentComponent</title>
<polygon fill="#ffffb3" stroke="#000000" points="1641.8229,-122 1490.1771,-122 1490.1771,-86 1641.8229,-86 1641.8229,-122"/>
<text text-anchor="middle" x="1566" y="-99.8" font-family="Times,serif" font-size="14.00" fill="#000000">KickStudentComponent</text>
</g>
<!-- KickStudentComponent&#45;&gt;AssistantPanelModule -->
<g id="edge22" class="edge">
<title>KickStudentComponent&#45;&gt;AssistantPanelModule</title>
<path fill="none" stroke="#000000" d="M1566,-122.0225C1566,-139.3734 1566,-163 1566,-163 1566,-163 2448.7233,-163 2448.7233,-163"/>
<polygon fill="#000000" stroke="#000000" points="2448.7233,-166.5001 2458.7233,-163 2448.7233,-159.5001 2448.7233,-166.5001"/>
</g>
<!-- MoveStudentComponent -->
<g id="node23" class="node">
<title>MoveStudentComponent</title>
<polygon fill="#ffffb3" stroke="#000000" points="1472.2702,-122 1315.7298,-122 1315.7298,-86 1472.2702,-86 1472.2702,-122"/>
<text text-anchor="middle" x="1394" y="-99.8" font-family="Times,serif" font-size="14.00" fill="#000000">MoveStudentComponent</text>
</g>
<!-- MoveStudentComponent&#45;&gt;AssistantPanelModule -->
<g id="edge23" class="edge">
<title>MoveStudentComponent&#45;&gt;AssistantPanelModule</title>
<path fill="none" stroke="#000000" d="M1394,-122.302C1394,-140.2699 1394,-165 1394,-165 1394,-165 2448.9381,-165 2448.9381,-165"/>
<polygon fill="#000000" stroke="#000000" points="2448.9381,-168.5001 2458.9381,-165 2448.9381,-161.5001 2448.9381,-168.5001"/>
</g>
<!-- UncancelClassComponent -->
<g id="node24" class="node">
<title>UncancelClassComponent</title>
<polygon fill="#ffffb3" stroke="#000000" points="1297.0197,-122 1132.9803,-122 1132.9803,-86 1297.0197,-86 1297.0197,-122"/>
<text text-anchor="middle" x="1215" y="-99.8" font-family="Times,serif" font-size="14.00" fill="#000000">UncancelClassComponent</text>
</g>
<!-- UncancelClassComponent&#45;&gt;AssistantPanelModule -->
<g id="edge24" class="edge">
<title>UncancelClassComponent&#45;&gt;AssistantPanelModule</title>
<path fill="none" stroke="#000000" d="M1215,-122.2222C1215,-140.8285 1215,-167 1215,-167 1215,-167 2448.8336,-167 2448.8336,-167"/>
<polygon fill="#000000" stroke="#000000" points="2448.8337,-170.5001 2458.8336,-167 2448.8336,-163.5001 2448.8337,-170.5001"/>
</g>
<!-- TimetableDialogComponent -->
<g id="node25" class="node">
<title>TimetableDialogComponent</title>
<polygon fill="#ffffb3" stroke="#000000" points="1115.1937,-122 938.8063,-122 938.8063,-86 1115.1937,-86 1115.1937,-122"/>
<text text-anchor="middle" x="1027" y="-99.8" font-family="Times,serif" font-size="14.00" fill="#000000">TimetableDialogComponent</text>
</g>
<!-- TimetableDialogComponent&#45;&gt;AssistantPanelModule -->
<g id="edge25" class="edge">
<title>TimetableDialogComponent&#45;&gt;AssistantPanelModule</title>
<path fill="none" stroke="#000000" d="M1027,-122.1061C1027,-141.3391 1027,-169 1027,-169 1027,-169 2448.7701,-169 2448.7701,-169"/>
<polygon fill="#000000" stroke="#000000" points="2448.7701,-172.5001 2458.7701,-169 2448.7701,-165.5001 2448.7701,-172.5001"/>
</g>
<!-- CommonModule -->
<g id="node27" class="node">
<title>CommonModule</title>
<polygon fill="#8dd3c7" stroke="#000000" points="914.6681,-122 911.6681,-126 890.6681,-126 887.6681,-122 803.3319,-122 803.3319,-86 914.6681,-86 914.6681,-122"/>
<text text-anchor="middle" x="859" y="-99.8" font-family="Times,serif" font-size="14.00" fill="#000000">CommonModule</text>
</g>
<!-- CommonModule&#45;&gt;AssistantPanelModule -->
<g id="edge26" class="edge">
<title>CommonModule&#45;&gt;AssistantPanelModule</title>
<path fill="none" stroke="#000000" d="M859,-122.2228C859,-142.3652 859,-172 859,-172 859,-172 2449.0004,-172 2449.0004,-172"/>
<polygon fill="#000000" stroke="#000000" points="2449.0004,-175.5001 2459.0004,-172 2449.0003,-168.5001 2449.0004,-175.5001"/>
</g>
<!-- SharedModule -->
<g id="node28" class="node">
<title>SharedModule</title>
<polygon fill="#8dd3c7" stroke="#000000" points="785.4231,-122 782.4231,-126 761.4231,-126 758.4231,-122 686.5769,-122 686.5769,-86 785.4231,-86 785.4231,-122"/>
<text text-anchor="middle" x="736" y="-99.8" font-family="Times,serif" font-size="14.00" fill="#000000">SharedModule</text>
</g>
<!-- SharedModule&#45;&gt;AssistantPanelModule -->
<g id="edge27" class="edge">
<title>SharedModule&#45;&gt;AssistantPanelModule</title>
<path fill="none" stroke="#000000" d="M736,-122.0267C736,-142.7672 736,-174 736,-174 736,-174 2448.8435,-174 2448.8435,-174"/>
<polygon fill="#000000" stroke="#000000" points="2448.8435,-177.5001 2458.8435,-174 2448.8435,-170.5001 2448.8435,-177.5001"/>
</g>
<!-- HeaderModule -->
<g id="node29" class="node">
<title>HeaderModule</title>
<polygon fill="#8dd3c7" stroke="#000000" points="668.9608,-122 665.9608,-126 644.9608,-126 641.9608,-122 569.0392,-122 569.0392,-86 668.9608,-86 668.9608,-122"/>
<text text-anchor="middle" x="619" y="-99.8" font-family="Times,serif" font-size="14.00" fill="#000000">HeaderModule</text>
</g>
<!-- HeaderModule&#45;&gt;AssistantPanelModule -->
<g id="edge28" class="edge">
<title>HeaderModule&#45;&gt;AssistantPanelModule</title>
<path fill="none" stroke="#000000" d="M619,-122.1686C619,-143.498 619,-176 619,-176 619,-176 2448.8615,-176 2448.8615,-176"/>
<polygon fill="#000000" stroke="#000000" points="2448.8616,-179.5001 2458.8615,-176 2448.8615,-172.5001 2448.8616,-179.5001"/>
</g>
<!-- UiModule -->
<g id="node30" class="node">
<title>UiModule</title>
<polygon fill="#8dd3c7" stroke="#000000" points="550.5484,-122 547.5484,-126 526.5484,-126 523.5484,-122 477.4516,-122 477.4516,-86 550.5484,-86 550.5484,-122"/>
<text text-anchor="middle" x="514" y="-99.8" font-family="Times,serif" font-size="14.00" fill="#000000">UiModule</text>
</g>
<!-- UiModule&#45;&gt;AssistantPanelModule -->
<g id="edge29" class="edge">
<title>UiModule&#45;&gt;AssistantPanelModule</title>
<path fill="none" stroke="#000000" d="M514,-122.2921C514,-144.2057 514,-178 514,-178 514,-178 2448.8417,-178 2448.8417,-178"/>
<polygon fill="#000000" stroke="#000000" points="2448.8417,-181.5001 2458.8417,-178 2448.8416,-174.5001 2448.8417,-181.5001"/>
</g>
<!-- FormsModule -->
<g id="node31" class="node">
<title>FormsModule</title>
<polygon fill="#8dd3c7" stroke="#000000" points="459.8288,-122 456.8288,-126 435.8288,-126 432.8288,-122 364.1712,-122 364.1712,-86 459.8288,-86 459.8288,-122"/>
<text text-anchor="middle" x="412" y="-99.8" font-family="Times,serif" font-size="14.00" fill="#000000">FormsModule</text>
</g>
<!-- FormsModule&#45;&gt;AssistantPanelModule -->
<g id="edge30" class="edge">
<title>FormsModule&#45;&gt;AssistantPanelModule</title>
<path fill="none" stroke="#000000" d="M412,-122.2479C412,-145.0179 412,-181 412,-181 412,-181 2448.9247,-181 2448.9247,-181"/>
<polygon fill="#000000" stroke="#000000" points="2448.9248,-184.5001 2458.9247,-181 2448.9247,-177.5001 2448.9248,-184.5001"/>
</g>
<!-- TimetableModule -->
<g id="node32" class="node">
<title>TimetableModule</title>
<polygon fill="#8dd3c7" stroke="#000000" points="346.309,-122 343.309,-126 322.309,-126 319.309,-122 229.691,-122 229.691,-86 346.309,-86 346.309,-122"/>
<text text-anchor="middle" x="288" y="-99.8" font-family="Times,serif" font-size="14.00" fill="#000000">TimetableModule</text>
</g>
<!-- TimetableModule&#45;&gt;AssistantPanelModule -->
<g id="edge31" class="edge">
<title>TimetableModule&#45;&gt;AssistantPanelModule</title>
<path fill="none" stroke="#000000" d="M288,-122.3228C288,-145.6602 288,-183 288,-183 288,-183 2448.8858,-183 2448.8858,-183"/>
<polygon fill="#000000" stroke="#000000" points="2448.8858,-186.5001 2458.8858,-183 2448.8857,-179.5001 2448.8858,-186.5001"/>
</g>
<!-- AssistantPanelRoutingModule -->
<g id="node33" class="node">
<title>AssistantPanelRoutingModule</title>
<polygon fill="#8dd3c7" stroke="#000000" points="211.5968,-122 208.5968,-126 187.5968,-126 184.5968,-122 24.4032,-122 24.4032,-86 211.5968,-86 211.5968,-122"/>
<text text-anchor="middle" x="118" y="-99.8" font-family="Times,serif" font-size="14.00" fill="#000000">AssistantPanelRoutingModule</text>
</g>
<!-- AssistantPanelRoutingModule&#45;&gt;AssistantPanelModule -->
<g id="edge32" class="edge">
<title>AssistantPanelRoutingModule&#45;&gt;AssistantPanelModule</title>
<path fill="none" stroke="#000000" d="M118,-122.3802C118,-146.2785 118,-185 118,-185 118,-185 2448.7942,-185 2448.7942,-185"/>
<polygon fill="#000000" stroke="#000000" points="2448.7942,-188.5001 2458.7942,-185 2448.7942,-181.5001 2448.7942,-188.5001"/>
</g>
</g>
</svg>
