<?xml version="1.0" encoding="UTF-8" standalone="no"?>
<!DOCTYPE svg PUBLIC "-//W3C//DTD SVG 1.1//EN"
 "http://www.w3.org/Graphics/SVG/1.1/DTD/svg11.dtd">
<!-- Generated by graphviz version 2.40.1 (20161225.0304)
 -->
<!-- Title: dependencies Pages: 1 -->
<svg width="1908pt" height="284pt"
 viewBox="0.00 0.00 1908.00 284.00" xmlns="http://www.w3.org/2000/svg" xmlns:xlink="http://www.w3.org/1999/xlink">
<g id="graph0" class="graph" transform="scale(1 1) rotate(0) translate(4 280)">
<title>dependencies</title>
<polygon fill="#ffffff" stroke="transparent" points="-4,4 -4,-280 1904,-280 1904,4 -4,4"/>
<text text-anchor="start" x="929.0091" y="-42.4" font-family="sans-serif" font-weight="bold" font-size="14.00" fill="#000000">Legend</text>
<polygon fill="#ffffb3" stroke="transparent" points="716,-10 716,-30 736,-30 736,-10 716,-10"/>
<text text-anchor="start" x="739.629" y="-15.4" font-family="sans-serif" font-size="14.00" fill="#000000"> &#160;Declarations</text>
<polygon fill="#8dd3c7" stroke="transparent" points="829,-10 829,-30 849,-30 849,-10 829,-10"/>
<text text-anchor="start" x="852.7251" y="-15.4" font-family="sans-serif" font-size="14.00" fill="#000000"> &#160;Module</text>
<polygon fill="#80b1d3" stroke="transparent" points="915,-10 915,-30 935,-30 935,-10 915,-10"/>
<text text-anchor="start" x="938.7812" y="-15.4" font-family="sans-serif" font-size="14.00" fill="#000000"> &#160;Bootstrap</text>
<polygon fill="#fdb462" stroke="transparent" points="1012,-10 1012,-30 1032,-30 1032,-10 1012,-10"/>
<text text-anchor="start" x="1035.6732" y="-15.4" font-family="sans-serif" font-size="14.00" fill="#000000"> &#160;Providers</text>
<polygon fill="#fb8072" stroke="transparent" points="1108,-10 1108,-30 1128,-30 1128,-10 1108,-10"/>
<text text-anchor="start" x="1131.7258" y="-15.4" font-family="sans-serif" font-size="14.00" fill="#000000"> &#160;Exports</text>
<g id="clust1" class="cluster">
<title>cluster_TimetableModule</title>
<polygon fill="none" stroke="#000000" stroke-dasharray="1,5" points="8,-70 8,-268 1892,-268 1892,-70 8,-70"/>
</g>
<g id="clust2" class="cluster">
<title>cluster_TimetableModule_declarations</title>
<polygon fill="none" stroke="#000000" points="561,-78 561,-130 1884,-130 1884,-78 561,-78"/>
</g>
<g id="clust11" class="cluster">
<title>cluster_TimetableModule_imports</title>
<polygon fill="none" stroke="#000000" points="16,-78 16,-130 553,-130 553,-78 16,-78"/>
</g>
<g id="clust12" class="cluster">
<title>cluster_TimetableModule_exports</title>
<polygon fill="none" stroke="#000000" points="797,-208 797,-260 955,-260 955,-208 797,-208"/>
</g>
<!-- TimetableComponent -->
<g id="node1" class="node">
<title>TimetableComponent</title>
<polygon fill="#ffffb3" stroke="#000000" points="1876.0912,-122 1737.9088,-122 1737.9088,-86 1876.0912,-86 1876.0912,-122"/>
<text text-anchor="middle" x="1807" y="-99.8" font-family="Times,serif" font-size="14.00" fill="#000000">TimetableComponent</text>
</g>
<!-- TimetableModule -->
<g id="node9" class="node">
<title>TimetableModule</title>
<polygon fill="#8dd3c7" stroke="#000000" points="934.309,-187 931.309,-191 910.309,-191 907.309,-187 817.691,-187 817.691,-151 934.309,-151 934.309,-187"/>
<text text-anchor="middle" x="876" y="-164.8" font-family="Times,serif" font-size="14.00" fill="#000000">TimetableModule</text>
</g>
<!-- TimetableComponent&#45;&gt;TimetableModule -->
<g id="edge1" class="edge">
<title>TimetableComponent&#45;&gt;TimetableModule</title>
<path fill="none" stroke="#000000" d="M1807,-122.2479C1807,-145.0179 1807,-181 1807,-181 1807,-181 944.2382,-181 944.2382,-181"/>
<polygon fill="#000000" stroke="#000000" points="944.2383,-177.5001 934.2382,-181 944.2382,-184.5001 944.2383,-177.5001"/>
</g>
<!-- ToTimestampPipe -->
<g id="node2" class="node">
<title>ToTimestampPipe</title>
<polygon fill="#ffffb3" stroke="#000000" points="1719.93,-122 1600.07,-122 1600.07,-86 1719.93,-86 1719.93,-122"/>
<text text-anchor="middle" x="1660" y="-99.8" font-family="Times,serif" font-size="14.00" fill="#000000">ToTimestampPipe</text>
</g>
<!-- ToTimestampPipe&#45;&gt;TimetableModule -->
<g id="edge2" class="edge">
<title>ToTimestampPipe&#45;&gt;TimetableModule</title>
<path fill="none" stroke="#000000" d="M1660,-122.2843C1660,-143.3211 1660,-175 1660,-175 1660,-175 944.2869,-175 944.2869,-175"/>
<polygon fill="#000000" stroke="#000000" points="944.2869,-171.5001 934.2869,-175 944.2869,-178.5001 944.2869,-171.5001"/>
</g>
<!-- TimetableColumnComponent -->
<g id="node3" class="node">
<title>TimetableColumnComponent</title>
<polygon fill="#ffffb3" stroke="#000000" points="1582.7091,-122 1399.2909,-122 1399.2909,-86 1582.7091,-86 1582.7091,-122"/>
<text text-anchor="middle" x="1491" y="-99.8" font-family="Times,serif" font-size="14.00" fill="#000000">TimetableColumnComponent</text>
</g>
<!-- TimetableColumnComponent&#45;&gt;TimetableModule -->
<g id="edge3" class="edge">
<title>TimetableColumnComponent&#45;&gt;TimetableModule</title>
<path fill="none" stroke="#000000" d="M1491,-122.1061C1491,-141.3391 1491,-169 1491,-169 1491,-169 944.4122,-169 944.4122,-169"/>
<polygon fill="#000000" stroke="#000000" points="944.4122,-165.5001 934.4122,-169 944.4121,-172.5001 944.4122,-165.5001"/>
</g>
<!-- TimetableClassComponent -->
<g id="node4" class="node">
<title>TimetableClassComponent</title>
<polygon fill="#ffffb3" stroke="#000000" points="1381.4227,-122 1212.5773,-122 1212.5773,-86 1381.4227,-86 1381.4227,-122"/>
<text text-anchor="middle" x="1297" y="-99.8" font-family="Times,serif" font-size="14.00" fill="#000000">TimetableClassComponent</text>
</g>
<!-- TimetableClassComponent&#45;&gt;TimetableModule -->
<g id="edge4" class="edge">
<title>TimetableClassComponent&#45;&gt;TimetableModule</title>
<path fill="none" stroke="#000000" d="M1297,-122.0225C1297,-139.3734 1297,-163 1297,-163 1297,-163 944.5382,-163 944.5382,-163"/>
<polygon fill="#000000" stroke="#000000" points="944.5383,-159.5001 934.5382,-163 944.5382,-166.5001 944.5383,-159.5001"/>
</g>
<!-- ClassDetailsComponent -->
<g id="node5" class="node">
<title>ClassDetailsComponent</title>
<polygon fill="#ffffb3" stroke="#000000" points="1194.8159,-122 1043.1841,-122 1043.1841,-86 1194.8159,-86 1194.8159,-122"/>
<text text-anchor="middle" x="1119" y="-99.8" font-family="Times,serif" font-size="14.00" fill="#000000">ClassDetailsComponent</text>
</g>
<!-- ClassDetailsComponent&#45;&gt;TimetableModule -->
<g id="edge5" class="edge">
<title>ClassDetailsComponent&#45;&gt;TimetableModule</title>
<path fill="none" stroke="#000000" d="M1119,-122.2396C1119,-137.5706 1119,-157 1119,-157 1119,-157 944.2046,-157 944.2046,-157"/>
<polygon fill="#000000" stroke="#000000" points="944.2046,-153.5001 934.2046,-157 944.2045,-160.5001 944.2046,-153.5001"/>
</g>
<!-- AddTaskComponent -->
<g id="node6" class="node">
<title>AddTaskComponent</title>
<polygon fill="#ffffb3" stroke="#000000" points="1025.1513,-122 892.8487,-122 892.8487,-86 1025.1513,-86 1025.1513,-122"/>
<text text-anchor="middle" x="959" y="-99.8" font-family="Times,serif" font-size="14.00" fill="#000000">AddTaskComponent</text>
</g>
<!-- AddTaskComponent&#45;&gt;TimetableModule -->
<g id="edge6" class="edge">
<title>AddTaskComponent&#45;&gt;TimetableModule</title>
<path fill="none" stroke="#000000" d="M913.4145,-122.1061C913.4145,-122.1061 913.4145,-140.991 913.4145,-140.991"/>
<polygon fill="#000000" stroke="#000000" points="909.9145,-140.9909 913.4145,-150.991 916.9145,-140.991 909.9145,-140.9909"/>
</g>
<!-- BulletinBoardComponent -->
<g id="node7" class="node">
<title>BulletinBoardComponent</title>
<polygon fill="#ffffb3" stroke="#000000" points="874.1582,-122 713.8418,-122 713.8418,-86 874.1582,-86 874.1582,-122"/>
<text text-anchor="middle" x="794" y="-99.8" font-family="Times,serif" font-size="14.00" fill="#000000">BulletinBoardComponent</text>
</g>
<!-- BulletinBoardComponent&#45;&gt;TimetableModule -->
<g id="edge7" class="edge">
<title>BulletinBoardComponent&#45;&gt;TimetableModule</title>
<path fill="none" stroke="#000000" d="M846.0873,-122.1061C846.0873,-122.1061 846.0873,-140.991 846.0873,-140.991"/>
<polygon fill="#000000" stroke="#000000" points="842.5874,-140.9909 846.0873,-150.991 849.5874,-140.991 842.5874,-140.9909"/>
</g>
<!-- SettingsComponent -->
<g id="node8" class="node">
<title>SettingsComponent</title>
<polygon fill="#ffffb3" stroke="#000000" points="695.4468,-122 568.5532,-122 568.5532,-86 695.4468,-86 695.4468,-122"/>
<text text-anchor="middle" x="632" y="-99.8" font-family="Times,serif" font-size="14.00" fill="#000000">SettingsComponent</text>
</g>
<!-- SettingsComponent&#45;&gt;TimetableModule -->
<g id="edge8" class="edge">
<title>SettingsComponent&#45;&gt;TimetableModule</title>
<path fill="none" stroke="#000000" d="M632,-122.2396C632,-137.5706 632,-157 632,-157 632,-157 807.5559,-157 807.5559,-157"/>
<polygon fill="#000000" stroke="#000000" points="807.556,-160.5001 817.5559,-157 807.5559,-153.5001 807.556,-160.5001"/>
</g>
<!-- TimetableComponent  -->
<g id="node14" class="node">
<title>TimetableComponent </title>
<polygon fill="#fb8072" stroke="#000000" points="946.5918,-252 805.4082,-252 805.4082,-216 946.5918,-216 946.5918,-252"/>
<text text-anchor="middle" x="876" y="-229.8" font-family="Times,serif" font-size="14.00" fill="#000000">TimetableComponent </text>
</g>
<!-- TimetableModule&#45;&gt;TimetableComponent  -->
<g id="edge13" class="edge">
<title>TimetableModule&#45;&gt;TimetableComponent </title>
<path fill="none" stroke="#000000" stroke-dasharray="5,2" d="M876,-187.1061C876,-187.1061 876,-205.991 876,-205.991"/>
<polygon fill="#000000" stroke="#000000" points="872.5001,-205.9909 876,-215.991 879.5001,-205.991 872.5001,-205.9909"/>
</g>
<!-- CommonModule -->
<g id="node10" class="node">
<title>CommonModule</title>
<polygon fill="#8dd3c7" stroke="#000000" points="544.6681,-122 541.6681,-126 520.6681,-126 517.6681,-122 433.3319,-122 433.3319,-86 544.6681,-86 544.6681,-122"/>
<text text-anchor="middle" x="489" y="-99.8" font-family="Times,serif" font-size="14.00" fill="#000000">CommonModule</text>
</g>
<!-- CommonModule&#45;&gt;TimetableModule -->
<g id="edge9" class="edge">
<title>CommonModule&#45;&gt;TimetableModule</title>
<path fill="none" stroke="#000000" d="M489,-122.0225C489,-139.3734 489,-163 489,-163 489,-163 807.6432,-163 807.6432,-163"/>
<polygon fill="#000000" stroke="#000000" points="807.6432,-166.5001 817.6432,-163 807.6431,-159.5001 807.6432,-166.5001"/>
</g>
<!-- SharedModule -->
<g id="node11" class="node">
<title>SharedModule</title>
<polygon fill="#8dd3c7" stroke="#000000" points="415.4231,-122 412.4231,-126 391.4231,-126 388.4231,-122 316.5769,-122 316.5769,-86 415.4231,-86 415.4231,-122"/>
<text text-anchor="middle" x="366" y="-99.8" font-family="Times,serif" font-size="14.00" fill="#000000">SharedModule</text>
</g>
<!-- SharedModule&#45;&gt;TimetableModule -->
<g id="edge10" class="edge">
<title>SharedModule&#45;&gt;TimetableModule</title>
<path fill="none" stroke="#000000" d="M366,-122.1061C366,-141.3391 366,-169 366,-169 366,-169 807.4965,-169 807.4965,-169"/>
<polygon fill="#000000" stroke="#000000" points="807.4966,-172.5001 817.4965,-169 807.4965,-165.5001 807.4966,-172.5001"/>
</g>
<!-- FormsModule -->
<g id="node12" class="node">
<title>FormsModule</title>
<polygon fill="#8dd3c7" stroke="#000000" points="298.8288,-122 295.8288,-126 274.8288,-126 271.8288,-122 203.1712,-122 203.1712,-86 298.8288,-86 298.8288,-122"/>
<text text-anchor="middle" x="251" y="-99.8" font-family="Times,serif" font-size="14.00" fill="#000000">FormsModule</text>
</g>
<!-- FormsModule&#45;&gt;TimetableModule -->
<g id="edge11" class="edge">
<title>FormsModule&#45;&gt;TimetableModule</title>
<path fill="none" stroke="#000000" d="M251,-122.2843C251,-143.3211 251,-175 251,-175 251,-175 807.7628,-175 807.7628,-175"/>
<polygon fill="#000000" stroke="#000000" points="807.7628,-178.5001 817.7628,-175 807.7627,-171.5001 807.7628,-178.5001"/>
</g>
<!-- TimetableRoutingModule -->
<g id="node13" class="node">
<title>TimetableRoutingModule</title>
<polygon fill="#8dd3c7" stroke="#000000" points="185.927,-122 182.927,-126 161.927,-126 158.927,-122 24.073,-122 24.073,-86 185.927,-86 185.927,-122"/>
<text text-anchor="middle" x="105" y="-99.8" font-family="Times,serif" font-size="14.00" fill="#000000">TimetableRoutingModule</text>
</g>
<!-- TimetableRoutingModule&#45;&gt;TimetableModule -->
<g id="edge12" class="edge">
<title>TimetableRoutingModule&#45;&gt;TimetableModule</title>
<path fill="none" stroke="#000000" d="M105,-122.2479C105,-145.0179 105,-181 105,-181 105,-181 807.7336,-181 807.7336,-181"/>
<polygon fill="#000000" stroke="#000000" points="807.7337,-184.5001 817.7336,-181 807.7336,-177.5001 807.7337,-184.5001"/>
</g>
</g>
</svg>
