<?xml version="1.0" encoding="UTF-8" standalone="no"?>
<!DOCTYPE svg PUBLIC "-//W3C//DTD SVG 1.1//EN"
 "http://www.w3.org/Graphics/SVG/1.1/DTD/svg11.dtd">
<!-- Generated by graphviz version 2.40.1 (20161225.0304)
 -->
<!-- Title: dependencies Pages: 1 -->
<svg width="2385pt" height="284pt"
 viewBox="0.00 0.00 2385.00 284.00" xmlns="http://www.w3.org/2000/svg" xmlns:xlink="http://www.w3.org/1999/xlink">
<g id="graph0" class="graph" transform="scale(1 1) rotate(0) translate(4 280)">
<title>dependencies</title>
<polygon fill="#ffffff" stroke="transparent" points="-4,4 -4,-280 2381,-280 2381,4 -4,4"/>
<text text-anchor="start" x="1167.5091" y="-42.4" font-family="sans-serif" font-weight="bold" font-size="14.00" fill="#000000">Legend</text>
<polygon fill="#ffffb3" stroke="transparent" points="954.5,-10 954.5,-30 974.5,-30 974.5,-10 954.5,-10"/>
<text text-anchor="start" x="978.129" y="-15.4" font-family="sans-serif" font-size="14.00" fill="#000000"> &#160;Declarations</text>
<polygon fill="#8dd3c7" stroke="transparent" points="1067.5,-10 1067.5,-30 1087.5,-30 1087.5,-10 1067.5,-10"/>
<text text-anchor="start" x="1091.2251" y="-15.4" font-family="sans-serif" font-size="14.00" fill="#000000"> &#160;Module</text>
<polygon fill="#80b1d3" stroke="transparent" points="1153.5,-10 1153.5,-30 1173.5,-30 1173.5,-10 1153.5,-10"/>
<text text-anchor="start" x="1177.2812" y="-15.4" font-family="sans-serif" font-size="14.00" fill="#000000"> &#160;Bootstrap</text>
<polygon fill="#fdb462" stroke="transparent" points="1250.5,-10 1250.5,-30 1270.5,-30 1270.5,-10 1250.5,-10"/>
<text text-anchor="start" x="1274.1732" y="-15.4" font-family="sans-serif" font-size="14.00" fill="#000000"> &#160;Providers</text>
<polygon fill="#fb8072" stroke="transparent" points="1346.5,-10 1346.5,-30 1366.5,-30 1366.5,-10 1346.5,-10"/>
<text text-anchor="start" x="1370.2258" y="-15.4" font-family="sans-serif" font-size="14.00" fill="#000000"> &#160;Exports</text>
<g id="clust1" class="cluster">
<title>cluster_SharedModule</title>
<polygon fill="none" stroke="#000000" stroke-dasharray="1,5" points="8,-70 8,-268 2369,-268 2369,-70 8,-70"/>
</g>
<g id="clust4" class="cluster">
<title>cluster_SharedModule_exports</title>
<polygon fill="none" stroke="#000000" points="16,-208 16,-260 2361,-260 2361,-208 16,-208"/>
</g>
<g id="clust6" class="cluster">
<title>cluster_SharedModule_providers</title>
<polygon fill="none" stroke="#000000" points="346,-78 346,-130 2097,-130 2097,-78 346,-78"/>
</g>
<!-- TranslateModule  -->
<g id="node1" class="node">
<title>TranslateModule </title>
<polygon fill="#fb8072" stroke="#000000" points="2352.6327,-252 2237.3673,-252 2237.3673,-216 2352.6327,-216 2352.6327,-252"/>
<text text-anchor="middle" x="2295" y="-229.8" font-family="Times,serif" font-size="14.00" fill="#000000">TranslateModule </text>
</g>
<!-- MdButtonModule  -->
<g id="node2" class="node">
<title>MdButtonModule </title>
<polygon fill="#fb8072" stroke="#000000" points="2219.1128,-252 2098.8872,-252 2098.8872,-216 2219.1128,-216 2219.1128,-252"/>
<text text-anchor="middle" x="2159" y="-229.8" font-family="Times,serif" font-size="14.00" fill="#000000">MdButtonModule </text>
</g>
<!-- MdCheckboxModule  -->
<g id="node3" class="node">
<title>MdCheckboxModule </title>
<polygon fill="#fb8072" stroke="#000000" points="2080.7604,-252 1941.2396,-252 1941.2396,-216 2080.7604,-216 2080.7604,-252"/>
<text text-anchor="middle" x="2011" y="-229.8" font-family="Times,serif" font-size="14.00" fill="#000000">MdCheckboxModule </text>
</g>
<!-- MdInputModule  -->
<g id="node4" class="node">
<title>MdInputModule </title>
<polygon fill="#fb8072" stroke="#000000" points="1923.0456,-252 1810.9544,-252 1810.9544,-216 1923.0456,-216 1923.0456,-252"/>
<text text-anchor="middle" x="1867" y="-229.8" font-family="Times,serif" font-size="14.00" fill="#000000">MdInputModule </text>
</g>
<!-- MdSelectModule  -->
<g id="node5" class="node">
<title>MdSelectModule </title>
<polygon fill="#fb8072" stroke="#000000" points="1793.2024,-252 1676.7976,-252 1676.7976,-216 1793.2024,-216 1793.2024,-252"/>
<text text-anchor="middle" x="1735" y="-229.8" font-family="Times,serif" font-size="14.00" fill="#000000">MdSelectModule </text>
</g>
<!-- MdMenuModule  -->
<g id="node6" class="node">
<title>MdMenuModule </title>
<polygon fill="#fb8072" stroke="#000000" points="1658.6537,-252 1543.3463,-252 1543.3463,-216 1658.6537,-216 1658.6537,-252"/>
<text text-anchor="middle" x="1601" y="-229.8" font-family="Times,serif" font-size="14.00" fill="#000000">MdMenuModule </text>
</g>
<!-- MdIconModule  -->
<g id="node7" class="node">
<title>MdIconModule </title>
<polygon fill="#fb8072" stroke="#000000" points="1525.8702,-252 1418.1298,-252 1418.1298,-216 1525.8702,-216 1525.8702,-252"/>
<text text-anchor="middle" x="1472" y="-229.8" font-family="Times,serif" font-size="14.00" fill="#000000">MdIconModule </text>
</g>
<!-- MdDialogModule  -->
<g id="node8" class="node">
<title>MdDialogModule </title>
<polygon fill="#fb8072" stroke="#000000" points="1400.0975,-252 1279.9025,-252 1279.9025,-216 1400.0975,-216 1400.0975,-252"/>
<text text-anchor="middle" x="1340" y="-229.8" font-family="Times,serif" font-size="14.00" fill="#000000">MdDialogModule </text>
</g>
<!-- MdAutocompleteModule  -->
<g id="node9" class="node">
<title>MdAutocompleteModule </title>
<polygon fill="#fb8072" stroke="#000000" points="1261.8073,-252 1100.1927,-252 1100.1927,-216 1261.8073,-216 1261.8073,-252"/>
<text text-anchor="middle" x="1181" y="-229.8" font-family="Times,serif" font-size="14.00" fill="#000000">MdAutocompleteModule </text>
</g>
<!-- MdDatepickerModule  -->
<g id="node10" class="node">
<title>MdDatepickerModule </title>
<polygon fill="#fb8072" stroke="#000000" points="1081.9012,-252 938.0988,-252 938.0988,-216 1081.9012,-216 1081.9012,-252"/>
<text text-anchor="middle" x="1010" y="-229.8" font-family="Times,serif" font-size="14.00" fill="#000000">MdDatepickerModule </text>
</g>
<!-- MdNativeDateModule  -->
<g id="node11" class="node">
<title>MdNativeDateModule </title>
<polygon fill="#fb8072" stroke="#000000" points="920.238,-252 773.762,-252 773.762,-216 920.238,-216 920.238,-252"/>
<text text-anchor="middle" x="847" y="-229.8" font-family="Times,serif" font-size="14.00" fill="#000000">MdNativeDateModule </text>
</g>
<!-- MdTooltipModule  -->
<g id="node12" class="node">
<title>MdTooltipModule </title>
<polygon fill="#fb8072" stroke="#000000" points="755.7191,-252 632.2809,-252 632.2809,-216 755.7191,-216 755.7191,-252"/>
<text text-anchor="middle" x="694" y="-229.8" font-family="Times,serif" font-size="14.00" fill="#000000">MdTooltipModule </text>
</g>
<!-- MdSnackBarModule  -->
<g id="node13" class="node">
<title>MdSnackBarModule </title>
<polygon fill="#fb8072" stroke="#000000" points="614.418,-252 477.582,-252 477.582,-216 614.418,-216 614.418,-252"/>
<text text-anchor="middle" x="546" y="-229.8" font-family="Times,serif" font-size="14.00" fill="#000000">MdSnackBarModule </text>
</g>
<!-- MdTabsModule  -->
<g id="node14" class="node">
<title>MdTabsModule </title>
<polygon fill="#fb8072" stroke="#000000" points="459.7066,-252 350.2934,-252 350.2934,-216 459.7066,-216 459.7066,-252"/>
<text text-anchor="middle" x="405" y="-229.8" font-family="Times,serif" font-size="14.00" fill="#000000">MdTabsModule </text>
</g>
<!-- MdProgressSpinnerModule  -->
<g id="node15" class="node">
<title>MdProgressSpinnerModule </title>
<polygon fill="#fb8072" stroke="#000000" points="332.2506,-252 157.7494,-252 157.7494,-216 332.2506,-216 332.2506,-252"/>
<text text-anchor="middle" x="245" y="-229.8" font-family="Times,serif" font-size="14.00" fill="#000000">MdProgressSpinnerModule </text>
</g>
<!-- MdRadioModule  -->
<g id="node16" class="node">
<title>MdRadioModule </title>
<polygon fill="#fb8072" stroke="#000000" points="139.9362,-252 24.0638,-252 24.0638,-216 139.9362,-216 139.9362,-252"/>
<text text-anchor="middle" x="82" y="-229.8" font-family="Times,serif" font-size="14.00" fill="#000000">MdRadioModule </text>
</g>
<!-- SharedModule -->
<g id="node17" class="node">
<title>SharedModule</title>
<polygon fill="#8dd3c7" stroke="#000000" points="1309.4231,-187 1306.4231,-191 1285.4231,-191 1282.4231,-187 1210.5769,-187 1210.5769,-151 1309.4231,-151 1309.4231,-187"/>
<text text-anchor="middle" x="1260" y="-164.8" font-family="Times,serif" font-size="14.00" fill="#000000">SharedModule</text>
</g>
<!-- SharedModule&#45;&gt;TranslateModule  -->
<g id="edge1" class="edge">
<title>SharedModule&#45;&gt;TranslateModule </title>
<path fill="none" stroke="#000000" stroke-dasharray="5,2" d="M1309.2239,-166C1514.9114,-166 2295,-166 2295,-166 2295,-166 2295,-205.7772 2295,-205.7772"/>
<polygon fill="#000000" stroke="#000000" points="2291.5001,-205.7772 2295,-215.7772 2298.5001,-205.7773 2291.5001,-205.7772"/>
</g>
<!-- SharedModule&#45;&gt;MdButtonModule  -->
<g id="edge2" class="edge">
<title>SharedModule&#45;&gt;MdButtonModule </title>
<path fill="none" stroke="#000000" stroke-dasharray="5,2" d="M1309.2932,-169C1497.3272,-169 2159,-169 2159,-169 2159,-169 2159,-205.8939 2159,-205.8939"/>
<polygon fill="#000000" stroke="#000000" points="2155.5001,-205.8938 2159,-215.8939 2162.5001,-205.8939 2155.5001,-205.8938"/>
</g>
<!-- SharedModule&#45;&gt;MdCheckboxModule  -->
<g id="edge3" class="edge">
<title>SharedModule&#45;&gt;MdCheckboxModule </title>
<path fill="none" stroke="#000000" stroke-dasharray="5,2" d="M1309.2233,-172C1466.7544,-172 1948.2823,-172 1948.2823,-172 1948.2823,-172 1948.2823,-205.7333 1948.2823,-205.7333"/>
<polygon fill="#000000" stroke="#000000" points="1944.7824,-205.7333 1948.2823,-215.7333 1951.7824,-205.7333 1944.7824,-205.7333"/>
</g>
<!-- SharedModule&#45;&gt;MdInputModule  -->
<g id="edge4" class="edge">
<title>SharedModule&#45;&gt;MdInputModule </title>
<path fill="none" stroke="#000000" stroke-dasharray="5,2" d="M1309.416,-175C1454.154,-175 1867,-175 1867,-175 1867,-175 1867,-205.9775 1867,-205.9775"/>
<polygon fill="#000000" stroke="#000000" points="1863.5001,-205.9774 1867,-215.9775 1870.5001,-205.9775 1863.5001,-205.9774"/>
</g>
<!-- SharedModule&#45;&gt;MdSelectModule  -->
<g id="edge5" class="edge">
<title>SharedModule&#45;&gt;MdSelectModule </title>
<path fill="none" stroke="#000000" stroke-dasharray="5,2" d="M1309.3166,-178C1425.9104,-178 1708.8299,-178 1708.8299,-178 1708.8299,-178 1708.8299,-205.973 1708.8299,-205.973"/>
<polygon fill="#000000" stroke="#000000" points="1705.33,-205.973 1708.8299,-215.973 1712.33,-205.973 1705.33,-205.973"/>
</g>
<!-- SharedModule&#45;&gt;MdMenuModule  -->
<g id="edge6" class="edge">
<title>SharedModule&#45;&gt;MdMenuModule </title>
<path fill="none" stroke="#000000" stroke-dasharray="5,2" d="M1309.2807,-181C1393.5692,-181 1556.4211,-181 1556.4211,-181 1556.4211,-181 1556.4211,-205.7604 1556.4211,-205.7604"/>
<polygon fill="#000000" stroke="#000000" points="1552.9212,-205.7604 1556.4211,-215.7604 1559.9212,-205.7604 1552.9212,-205.7604"/>
</g>
<!-- SharedModule&#45;&gt;MdIconModule  -->
<g id="edge7" class="edge">
<title>SharedModule&#45;&gt;MdIconModule </title>
<path fill="none" stroke="#000000" stroke-dasharray="5,2" d="M1309.6399,-184C1358.3736,-184 1425.4481,-184 1425.4481,-184 1425.4481,-184 1425.4481,-205.9489 1425.4481,-205.9489"/>
<polygon fill="#000000" stroke="#000000" points="1421.9482,-205.9488 1425.4481,-215.9489 1428.9482,-205.9489 1421.9482,-205.9488"/>
</g>
<!-- SharedModule&#45;&gt;MdDialogModule  -->
<g id="edge8" class="edge">
<title>SharedModule&#45;&gt;MdDialogModule </title>
<path fill="none" stroke="#000000" stroke-dasharray="5,2" d="M1294.4564,-187.1061C1294.4564,-187.1061 1294.4564,-205.991 1294.4564,-205.991"/>
<polygon fill="#000000" stroke="#000000" points="1290.9564,-205.9909 1294.4564,-215.991 1297.9564,-205.991 1290.9564,-205.9909"/>
</g>
<!-- SharedModule&#45;&gt;MdAutocompleteModule  -->
<g id="edge9" class="edge">
<title>SharedModule&#45;&gt;MdAutocompleteModule </title>
<path fill="none" stroke="#000000" stroke-dasharray="5,2" d="M1236.3463,-187.1061C1236.3463,-187.1061 1236.3463,-205.991 1236.3463,-205.991"/>
<polygon fill="#000000" stroke="#000000" points="1232.8463,-205.9909 1236.3463,-215.991 1239.8463,-205.991 1232.8463,-205.9909"/>
</g>
<!-- SharedModule&#45;&gt;MdDatepickerModule  -->
<g id="edge10" class="edge">
<title>SharedModule&#45;&gt;MdDatepickerModule </title>
<path fill="none" stroke="#000000" stroke-dasharray="5,2" d="M1210.608,-184C1137.7504,-184 1010,-184 1010,-184 1010,-184 1010,-205.9489 1010,-205.9489"/>
<polygon fill="#000000" stroke="#000000" points="1006.5001,-205.9488 1010,-215.9489 1013.5001,-205.9489 1006.5001,-205.9488"/>
</g>
<!-- SharedModule&#45;&gt;MdNativeDateModule  -->
<g id="edge11" class="edge">
<title>SharedModule&#45;&gt;MdNativeDateModule </title>
<path fill="none" stroke="#000000" stroke-dasharray="5,2" d="M1210.6656,-181C1105.2023,-181 867.3291,-181 867.3291,-181 867.3291,-181 867.3291,-205.7604 867.3291,-205.7604"/>
<polygon fill="#000000" stroke="#000000" points="863.8292,-205.7604 867.3291,-215.7604 870.8292,-205.7604 863.8292,-205.7604"/>
</g>
<!-- SharedModule&#45;&gt;MdTooltipModule  -->
<g id="edge12" class="edge">
<title>SharedModule&#45;&gt;MdTooltipModule </title>
<path fill="none" stroke="#000000" stroke-dasharray="5,2" d="M1210.6263,-178C1082.6115,-178 749.9031,-178 749.9031,-178 749.9031,-178 749.9031,-205.973 749.9031,-205.973"/>
<polygon fill="#000000" stroke="#000000" points="746.4032,-205.973 749.9031,-215.973 753.4032,-205.973 746.4032,-205.973"/>
</g>
<!-- SharedModule&#45;&gt;MdSnackBarModule  -->
<g id="edge13" class="edge">
<title>SharedModule&#45;&gt;MdSnackBarModule </title>
<path fill="none" stroke="#000000" stroke-dasharray="5,2" d="M1210.5794,-175C1051.2118,-175 561.1443,-175 561.1443,-175 561.1443,-175 561.1443,-205.9775 561.1443,-205.9775"/>
<polygon fill="#000000" stroke="#000000" points="557.6444,-205.9774 561.1443,-215.9775 564.6444,-205.9775 557.6444,-205.9774"/>
</g>
<!-- SharedModule&#45;&gt;MdTabsModule  -->
<g id="edge14" class="edge">
<title>SharedModule&#45;&gt;MdTabsModule </title>
<path fill="none" stroke="#000000" stroke-dasharray="5,2" d="M1210.7631,-172C1029.1075,-172 406.9826,-172 406.9826,-172 406.9826,-172 406.9826,-205.7333 406.9826,-205.7333"/>
<polygon fill="#000000" stroke="#000000" points="403.4827,-205.7333 406.9826,-215.7333 410.4827,-205.7333 403.4827,-205.7333"/>
</g>
<!-- SharedModule&#45;&gt;MdProgressSpinnerModule  -->
<g id="edge15" class="edge">
<title>SharedModule&#45;&gt;MdProgressSpinnerModule </title>
<path fill="none" stroke="#000000" stroke-dasharray="5,2" d="M1210.7014,-169C1007.435,-169 245,-169 245,-169 245,-169 245,-205.8939 245,-205.8939"/>
<polygon fill="#000000" stroke="#000000" points="241.5001,-205.8938 245,-215.8939 248.5001,-205.8939 241.5001,-205.8938"/>
</g>
<!-- SharedModule&#45;&gt;MdRadioModule  -->
<g id="edge16" class="edge">
<title>SharedModule&#45;&gt;MdRadioModule </title>
<path fill="none" stroke="#000000" stroke-dasharray="5,2" d="M1210.5095,-166C986.9286,-166 82,-166 82,-166 82,-166 82,-205.7772 82,-205.7772"/>
<polygon fill="#000000" stroke="#000000" points="78.5001,-205.7772 82,-215.7772 85.5001,-205.7773 78.5001,-205.7772"/>
</g>
<!-- ThemeService -->
<g id="node18" class="node">
<title>ThemeService</title>
<ellipse fill="#fdb462" stroke="#000000" cx="2022" cy="-104" rx="66.6113" ry="18"/>
<text text-anchor="middle" x="2022" y="-99.8" font-family="Times,serif" font-size="14.00" fill="#000000">ThemeService</text>
</g>
<!-- ThemeService&#45;&gt;SharedModule -->
<g id="edge17" class="edge">
<title>ThemeService&#45;&gt;SharedModule</title>
<path fill="none" stroke="#000000" d="M2017.9124,-122.0225C2017.9124,-139.3734 2017.9124,-163 2017.9124,-163 2017.9124,-163 1319.4364,-163 1319.4364,-163"/>
<polygon fill="#000000" stroke="#000000" points="1319.4364,-159.5001 1309.4364,-163 1319.4364,-166.5001 1319.4364,-159.5001"/>
</g>
<!-- DepartmentsService -->
<g id="node19" class="node">
<title>DepartmentsService</title>
<ellipse fill="#fdb462" stroke="#000000" cx="1848" cy="-104" rx="89.1607" ry="18"/>
<text text-anchor="middle" x="1848" y="-99.8" font-family="Times,serif" font-size="14.00" fill="#000000">DepartmentsService</text>
</g>
<!-- DepartmentsService&#45;&gt;SharedModule -->
<g id="edge18" class="edge">
<title>DepartmentsService&#45;&gt;SharedModule</title>
<path fill="none" stroke="#000000" d="M1776.0104,-114.7974C1776.0104,-131.0703 1776.0104,-160 1776.0104,-160 1776.0104,-160 1319.4772,-160 1319.4772,-160"/>
<polygon fill="#000000" stroke="#000000" points="1319.4773,-156.5001 1309.4772,-160 1319.4772,-163.5001 1319.4773,-156.5001"/>
</g>
<!-- DivisionsService -->
<g id="node20" class="node">
<title>DivisionsService</title>
<ellipse fill="#fdb462" stroke="#000000" cx="1664" cy="-104" rx="77.0216" ry="18"/>
<text text-anchor="middle" x="1664" y="-99.8" font-family="Times,serif" font-size="14.00" fill="#000000">DivisionsService</text>
</g>
<!-- DivisionsService&#45;&gt;SharedModule -->
<g id="edge19" class="edge">
<title>DivisionsService&#45;&gt;SharedModule</title>
<path fill="none" stroke="#000000" d="M1622.783,-119.3298C1622.783,-134.9827 1622.783,-157 1622.783,-157 1622.783,-157 1319.3041,-157 1319.3041,-157"/>
<polygon fill="#000000" stroke="#000000" points="1319.3041,-153.5001 1309.3041,-157 1319.304,-160.5001 1319.3041,-153.5001"/>
</g>
<!-- GroupsService -->
<g id="node21" class="node">
<title>GroupsService</title>
<ellipse fill="#fdb462" stroke="#000000" cx="1501" cy="-104" rx="68.3382" ry="18"/>
<text text-anchor="middle" x="1501" y="-99.8" font-family="Times,serif" font-size="14.00" fill="#000000">GroupsService</text>
</g>
<!-- GroupsService&#45;&gt;SharedModule -->
<g id="edge20" class="edge">
<title>GroupsService&#45;&gt;SharedModule</title>
<path fill="none" stroke="#000000" d="M1479.1329,-121.2072C1479.1329,-135.6704 1479.1329,-154 1479.1329,-154 1479.1329,-154 1319.4509,-154 1319.4509,-154"/>
<polygon fill="#000000" stroke="#000000" points="1319.451,-150.5001 1309.4509,-154 1319.4509,-157.5001 1319.451,-150.5001"/>
</g>
<!-- StudentsService -->
<g id="node22" class="node">
<title>StudentsService</title>
<ellipse fill="#fdb462" stroke="#000000" cx="1341" cy="-104" rx="73.0113" ry="18"/>
<text text-anchor="middle" x="1341" y="-99.8" font-family="Times,serif" font-size="14.00" fill="#000000">StudentsService</text>
</g>
<!-- StudentsService&#45;&gt;SharedModule -->
<g id="edge21" class="edge">
<title>StudentsService&#45;&gt;SharedModule</title>
<path fill="none" stroke="#000000" d="M1288.4779,-116.8419C1288.4779,-116.8419 1288.4779,-140.5231 1288.4779,-140.5231"/>
<polygon fill="#000000" stroke="#000000" points="1284.978,-140.523 1288.4779,-150.5231 1291.978,-140.5231 1284.978,-140.523"/>
</g>
<!-- CoursesService -->
<g id="node23" class="node">
<title>CoursesService</title>
<ellipse fill="#fdb462" stroke="#000000" cx="1179" cy="-104" rx="71.2036" ry="18"/>
<text text-anchor="middle" x="1179" y="-99.8" font-family="Times,serif" font-size="14.00" fill="#000000">CoursesService</text>
</g>
<!-- CoursesService&#45;&gt;SharedModule -->
<g id="edge22" class="edge">
<title>CoursesService&#45;&gt;SharedModule</title>
<path fill="none" stroke="#000000" d="M1230.4453,-116.5327C1230.4453,-116.5327 1230.4453,-140.8507 1230.4453,-140.8507"/>
<polygon fill="#000000" stroke="#000000" points="1226.9454,-140.8506 1230.4453,-150.8507 1233.9454,-140.8507 1226.9454,-140.8506"/>
</g>
<!-- AssistantsService -->
<g id="node24" class="node">
<title>AssistantsService</title>
<ellipse fill="#fdb462" stroke="#000000" cx="1011" cy="-104" rx="79.3038" ry="18"/>
<text text-anchor="middle" x="1011" y="-99.8" font-family="Times,serif" font-size="14.00" fill="#000000">AssistantsService</text>
</g>
<!-- AssistantsService&#45;&gt;SharedModule -->
<g id="edge23" class="edge">
<title>AssistantsService&#45;&gt;SharedModule</title>
<path fill="none" stroke="#000000" d="M1086.0512,-109.7356C1086.0512,-122.869 1086.0512,-154 1086.0512,-154 1086.0512,-154 1200.6185,-154 1200.6185,-154"/>
<polygon fill="#000000" stroke="#000000" points="1200.6186,-157.5001 1210.6185,-154 1200.6185,-150.5001 1200.6186,-157.5001"/>
</g>
<!-- ClassroomsService -->
<g id="node25" class="node">
<title>ClassroomsService</title>
<ellipse fill="#fdb462" stroke="#000000" cx="829" cy="-104" rx="85.1063" ry="18"/>
<text text-anchor="middle" x="829" y="-99.8" font-family="Times,serif" font-size="14.00" fill="#000000">ClassroomsService</text>
</g>
<!-- ClassroomsService&#45;&gt;SharedModule -->
<g id="edge24" class="edge">
<title>ClassroomsService&#45;&gt;SharedModule</title>
<path fill="none" stroke="#000000" d="M820.6051,-121.9434C820.6051,-137.3191 820.6051,-157 820.6051,-157 820.6051,-157 1200.4499,-157 1200.4499,-157"/>
<polygon fill="#000000" stroke="#000000" points="1200.45,-160.5001 1210.4499,-157 1200.4499,-153.5001 1200.45,-160.5001"/>
</g>
<!-- RefreshTimetableService -->
<g id="node26" class="node">
<title>RefreshTimetableService</title>
<ellipse fill="#fdb462" stroke="#000000" cx="617" cy="-104" rx="109.341" ry="18"/>
<text text-anchor="middle" x="617" y="-99.8" font-family="Times,serif" font-size="14.00" fill="#000000">RefreshTimetableService</text>
</g>
<!-- RefreshTimetableService&#45;&gt;SharedModule -->
<g id="edge25" class="edge">
<title>RefreshTimetableService&#45;&gt;SharedModule</title>
<path fill="none" stroke="#000000" d="M679.1555,-119.007C679.1555,-135.5948 679.1555,-160 679.1555,-160 679.1555,-160 1200.4775,-160 1200.4775,-160"/>
<polygon fill="#000000" stroke="#000000" points="1200.4776,-163.5001 1210.4775,-160 1200.4775,-156.5001 1200.4776,-163.5001"/>
</g>
<!-- CookieService -->
<g id="node27" class="node">
<title>CookieService</title>
<ellipse fill="#fdb462" stroke="#000000" cx="422" cy="-104" rx="67.776" ry="18"/>
<text text-anchor="middle" x="422" y="-99.8" font-family="Times,serif" font-size="14.00" fill="#000000">CookieService</text>
</g>
<!-- CookieService&#45;&gt;SharedModule -->
<g id="edge26" class="edge">
<title>CookieService&#45;&gt;SharedModule</title>
<path fill="none" stroke="#000000" d="M483.7145,-111.7132C483.7145,-127.7059 483.7145,-163 483.7145,-163 483.7145,-163 1200.5553,-163 1200.5553,-163"/>
<polygon fill="#000000" stroke="#000000" points="1200.5554,-166.5001 1210.5553,-163 1200.5553,-159.5001 1200.5554,-166.5001"/>
</g>
</g>
</svg>
