<?xml version="1.0" encoding="UTF-8" standalone="no"?>
<!DOCTYPE svg PUBLIC "-//W3C//DTD SVG 1.1//EN"
 "http://www.w3.org/Graphics/SVG/1.1/DTD/svg11.dtd">
<!-- Generated by graphviz version 2.40.1 (20161225.0304)
 -->
<!-- Title: dependencies Pages: 1 -->
<svg width="2076pt" height="284pt"
 viewBox="0.00 0.00 2076.00 284.00" xmlns="http://www.w3.org/2000/svg" xmlns:xlink="http://www.w3.org/1999/xlink">
<g id="graph0" class="graph" transform="scale(1 1) rotate(0) translate(4 280)">
<title>dependencies</title>
<polygon fill="#ffffff" stroke="transparent" points="-4,4 -4,-280 2072,-280 2072,4 -4,4"/>
<text text-anchor="start" x="1013.0091" y="-42.4" font-family="sans-serif" font-weight="bold" font-size="14.00" fill="#000000">Legend</text>
<polygon fill="#ffffb3" stroke="transparent" points="800,-10 800,-30 820,-30 820,-10 800,-10"/>
<text text-anchor="start" x="823.629" y="-15.4" font-family="sans-serif" font-size="14.00" fill="#000000"> &#160;Declarations</text>
<polygon fill="#8dd3c7" stroke="transparent" points="913,-10 913,-30 933,-30 933,-10 913,-10"/>
<text text-anchor="start" x="936.7251" y="-15.4" font-family="sans-serif" font-size="14.00" fill="#000000"> &#160;Module</text>
<polygon fill="#80b1d3" stroke="transparent" points="999,-10 999,-30 1019,-30 1019,-10 999,-10"/>
<text text-anchor="start" x="1022.7812" y="-15.4" font-family="sans-serif" font-size="14.00" fill="#000000"> &#160;Bootstrap</text>
<polygon fill="#fdb462" stroke="transparent" points="1096,-10 1096,-30 1116,-30 1116,-10 1096,-10"/>
<text text-anchor="start" x="1119.6732" y="-15.4" font-family="sans-serif" font-size="14.00" fill="#000000"> &#160;Providers</text>
<polygon fill="#fb8072" stroke="transparent" points="1192,-10 1192,-30 1212,-30 1212,-10 1192,-10"/>
<text text-anchor="start" x="1215.7258" y="-15.4" font-family="sans-serif" font-size="14.00" fill="#000000"> &#160;Exports</text>
<g id="clust1" class="cluster">
<title>cluster_AppModule</title>
<polygon fill="none" stroke="#000000" stroke-dasharray="1,5" points="8,-70 8,-268 2060,-268 2060,-70 8,-70"/>
</g>
<g id="clust2" class="cluster">
<title>cluster_AppModule_declarations</title>
<polygon fill="none" stroke="#000000" points="1715,-78 1715,-130 2052,-130 2052,-78 1715,-78"/>
</g>
<g id="clust5" class="cluster">
<title>cluster_AppModule_imports</title>
<polygon fill="none" stroke="#000000" points="343,-78 343,-130 1707,-130 1707,-78 343,-78"/>
</g>
<g id="clust7" class="cluster">
<title>cluster_AppModule_bootstrap</title>
<polygon fill="none" stroke="#000000" points="1086,-208 1086,-260 1210,-260 1210,-208 1086,-208"/>
</g>
<g id="clust8" class="cluster">
<title>cluster_AppModule_providers</title>
<polygon fill="none" stroke="#000000" points="16,-78 16,-130 335,-130 335,-78 16,-78"/>
</g>
<!-- AppComponent -->
<g id="node1" class="node">
<title>AppComponent</title>
<polygon fill="#ffffb3" stroke="#000000" points="2043.9399,-122 1938.0601,-122 1938.0601,-86 2043.9399,-86 2043.9399,-122"/>
<text text-anchor="middle" x="1991" y="-99.8" font-family="Times,serif" font-size="14.00" fill="#000000">AppComponent</text>
</g>
<!-- AppModule -->
<g id="node3" class="node">
<title>AppModule</title>
<polygon fill="#8dd3c7" stroke="#000000" points="1189.6571,-187 1186.6571,-191 1165.6571,-191 1162.6571,-187 1106.3429,-187 1106.3429,-151 1189.6571,-151 1189.6571,-187"/>
<text text-anchor="middle" x="1148" y="-164.8" font-family="Times,serif" font-size="14.00" fill="#000000">AppModule</text>
</g>
<!-- AppComponent&#45;&gt;AppModule -->
<g id="edge1" class="edge">
<title>AppComponent&#45;&gt;AppModule</title>
<path fill="none" stroke="#000000" d="M1991,-122.0908C1991,-145.1328 1991,-182 1991,-182 1991,-182 1199.8045,-182 1199.8045,-182"/>
<polygon fill="#000000" stroke="#000000" points="1199.8045,-178.5001 1189.8045,-182 1199.8045,-185.5001 1199.8045,-178.5001"/>
</g>
<!-- UnauthorizedAccessComponent -->
<g id="node2" class="node">
<title>UnauthorizedAccessComponent</title>
<polygon fill="#ffffb3" stroke="#000000" points="1920.6643,-122 1723.3357,-122 1723.3357,-86 1920.6643,-86 1920.6643,-122"/>
<text text-anchor="middle" x="1822" y="-99.8" font-family="Times,serif" font-size="14.00" fill="#000000">UnauthorizedAccessComponent</text>
</g>
<!-- UnauthorizedAccessComponent&#45;&gt;AppModule -->
<g id="edge2" class="edge">
<title>UnauthorizedAccessComponent&#45;&gt;AppModule</title>
<path fill="none" stroke="#000000" d="M1822,-122.0449C1822,-143.6623 1822,-177 1822,-177 1822,-177 1199.9071,-177 1199.9071,-177"/>
<polygon fill="#000000" stroke="#000000" points="1199.9071,-173.5001 1189.9071,-177 1199.907,-180.5001 1199.9071,-173.5001"/>
</g>
<!-- AppComponent  -->
<g id="node14" class="node">
<title>AppComponent </title>
<polygon fill="#80b1d3" stroke="#000000" points="1202.439,-252 1093.561,-252 1093.561,-216 1202.439,-216 1202.439,-252"/>
<text text-anchor="middle" x="1148" y="-229.8" font-family="Times,serif" font-size="14.00" fill="#000000">AppComponent </text>
</g>
<!-- AppModule&#45;&gt;AppComponent  -->
<g id="edge13" class="edge">
<title>AppModule&#45;&gt;AppComponent </title>
<path fill="none" stroke="#000000" stroke-dasharray="1,5" d="M1148,-187.1061C1148,-187.1061 1148,-205.991 1148,-205.991"/>
<polygon fill="#000000" stroke="#000000" points="1144.5001,-205.9909 1148,-215.991 1151.5001,-205.991 1144.5001,-205.9909"/>
</g>
<!-- BrowserModule -->
<g id="node4" class="node">
<title>BrowserModule</title>
<polygon fill="#8dd3c7" stroke="#000000" points="1699.4734,-122 1696.4734,-126 1675.4734,-126 1672.4734,-122 1592.5266,-122 1592.5266,-86 1699.4734,-86 1699.4734,-122"/>
<text text-anchor="middle" x="1646" y="-99.8" font-family="Times,serif" font-size="14.00" fill="#000000">BrowserModule</text>
</g>
<!-- BrowserModule&#45;&gt;AppModule -->
<g id="edge3" class="edge">
<title>BrowserModule&#45;&gt;AppModule</title>
<path fill="none" stroke="#000000" d="M1646,-122.2228C1646,-142.3652 1646,-172 1646,-172 1646,-172 1200.03,-172 1200.03,-172"/>
<polygon fill="#000000" stroke="#000000" points="1200.03,-168.5001 1190.03,-172 1200.03,-175.5001 1200.03,-168.5001"/>
</g>
<!-- FormsModule -->
<g id="node5" class="node">
<title>FormsModule</title>
<polygon fill="#8dd3c7" stroke="#000000" points="1574.8288,-122 1571.8288,-126 1550.8288,-126 1547.8288,-122 1479.1712,-122 1479.1712,-86 1574.8288,-86 1574.8288,-122"/>
<text text-anchor="middle" x="1527" y="-99.8" font-family="Times,serif" font-size="14.00" fill="#000000">FormsModule</text>
</g>
<!-- FormsModule&#45;&gt;AppModule -->
<g id="edge4" class="edge">
<title>FormsModule&#45;&gt;AppModule</title>
<path fill="none" stroke="#000000" d="M1527,-122.2222C1527,-140.8285 1527,-167 1527,-167 1527,-167 1200.0077,-167 1200.0077,-167"/>
<polygon fill="#000000" stroke="#000000" points="1200.0077,-163.5001 1190.0077,-167 1200.0077,-170.5001 1200.0077,-163.5001"/>
</g>
<!-- HttpModule -->
<g id="node6" class="node">
<title>HttpModule</title>
<polygon fill="#8dd3c7" stroke="#000000" points="1461.4387,-122 1458.4387,-126 1437.4387,-126 1434.4387,-122 1376.5613,-122 1376.5613,-86 1461.4387,-86 1461.4387,-122"/>
<text text-anchor="middle" x="1419" y="-99.8" font-family="Times,serif" font-size="14.00" fill="#000000">HttpModule</text>
</g>
<!-- HttpModule&#45;&gt;AppModule -->
<g id="edge5" class="edge">
<title>HttpModule&#45;&gt;AppModule</title>
<path fill="none" stroke="#000000" d="M1419,-122.0336C1419,-139.0597 1419,-162 1419,-162 1419,-162 1199.7498,-162 1199.7498,-162"/>
<polygon fill="#000000" stroke="#000000" points="1199.7499,-158.5001 1189.7498,-162 1199.7498,-165.5001 1199.7499,-158.5001"/>
</g>
<!-- SharedModule -->
<g id="node7" class="node">
<title>SharedModule</title>
<polygon fill="#8dd3c7" stroke="#000000" points="1359.4231,-122 1356.4231,-126 1335.4231,-126 1332.4231,-122 1260.5769,-122 1260.5769,-86 1359.4231,-86 1359.4231,-122"/>
<text text-anchor="middle" x="1310" y="-99.8" font-family="Times,serif" font-size="14.00" fill="#000000">SharedModule</text>
</g>
<!-- SharedModule&#45;&gt;AppModule -->
<g id="edge6" class="edge">
<title>SharedModule&#45;&gt;AppModule</title>
<path fill="none" stroke="#000000" d="M1310,-122.2396C1310,-137.5706 1310,-157 1310,-157 1310,-157 1199.719,-157 1199.719,-157"/>
<polygon fill="#000000" stroke="#000000" points="1199.7191,-153.5001 1189.719,-157 1199.719,-160.5001 1199.7191,-153.5001"/>
</g>
<!-- TestModule -->
<g id="node8" class="node">
<title>TestModule</title>
<polygon fill="#8dd3c7" stroke="#000000" points="1242.6529,-122 1239.6529,-126 1218.6529,-126 1215.6529,-122 1159.3471,-122 1159.3471,-86 1242.6529,-86 1242.6529,-122"/>
<text text-anchor="middle" x="1201" y="-99.8" font-family="Times,serif" font-size="14.00" fill="#000000">TestModule</text>
</g>
<!-- TestModule&#45;&gt;AppModule -->
<g id="edge7" class="edge">
<title>TestModule&#45;&gt;AppModule</title>
<path fill="none" stroke="#000000" d="M1174.501,-122.1061C1174.501,-122.1061 1174.501,-140.991 1174.501,-140.991"/>
<polygon fill="#000000" stroke="#000000" points="1171.0011,-140.9909 1174.501,-150.991 1178.0011,-140.991 1171.0011,-140.9909"/>
</g>
<!-- LoginModule -->
<g id="node9" class="node">
<title>LoginModule</title>
<polygon fill="#8dd3c7" stroke="#000000" points="1141.493,-122 1138.493,-126 1117.493,-126 1114.493,-122 1048.507,-122 1048.507,-86 1141.493,-86 1141.493,-122"/>
<text text-anchor="middle" x="1095" y="-99.8" font-family="Times,serif" font-size="14.00" fill="#000000">LoginModule</text>
</g>
<!-- LoginModule&#45;&gt;AppModule -->
<g id="edge8" class="edge">
<title>LoginModule&#45;&gt;AppModule</title>
<path fill="none" stroke="#000000" d="M1123.8342,-122.1061C1123.8342,-122.1061 1123.8342,-140.991 1123.8342,-140.991"/>
<polygon fill="#000000" stroke="#000000" points="1120.3342,-140.9909 1123.8342,-150.991 1127.3342,-140.991 1120.3342,-140.9909"/>
</g>
<!-- StudentPanelModule -->
<g id="node10" class="node">
<title>StudentPanelModule</title>
<polygon fill="#8dd3c7" stroke="#000000" points="1030.9313,-122 1027.9313,-126 1006.9313,-126 1003.9313,-122 897.0687,-122 897.0687,-86 1030.9313,-86 1030.9313,-122"/>
<text text-anchor="middle" x="964" y="-99.8" font-family="Times,serif" font-size="14.00" fill="#000000">StudentPanelModule</text>
</g>
<!-- StudentPanelModule&#45;&gt;AppModule -->
<g id="edge9" class="edge">
<title>StudentPanelModule&#45;&gt;AppModule</title>
<path fill="none" stroke="#000000" d="M964,-122.2396C964,-137.5706 964,-157 964,-157 964,-157 1096.2476,-157 1096.2476,-157"/>
<polygon fill="#000000" stroke="#000000" points="1096.2476,-160.5001 1106.2476,-157 1096.2475,-153.5001 1096.2476,-160.5001"/>
</g>
<!-- BrowserAnimationsModule -->
<g id="node11" class="node">
<title>BrowserAnimationsModule</title>
<polygon fill="#8dd3c7" stroke="#000000" points="879.3019,-122 876.3019,-126 855.3019,-126 852.3019,-122 706.6981,-122 706.6981,-86 879.3019,-86 879.3019,-122"/>
<text text-anchor="middle" x="793" y="-99.8" font-family="Times,serif" font-size="14.00" fill="#000000">BrowserAnimationsModule</text>
</g>
<!-- BrowserAnimationsModule&#45;&gt;AppModule -->
<g id="edge10" class="edge">
<title>BrowserAnimationsModule&#45;&gt;AppModule</title>
<path fill="none" stroke="#000000" d="M793,-122.0336C793,-139.0597 793,-162 793,-162 793,-162 1096.2331,-162 1096.2331,-162"/>
<polygon fill="#000000" stroke="#000000" points="1096.2331,-165.5001 1106.2331,-162 1096.233,-158.5001 1096.2331,-165.5001"/>
</g>
<!-- TranslateModule.forRoot(args) -->
<g id="node12" class="node">
<title>TranslateModule.forRoot(args)</title>
<polygon fill="#8dd3c7" stroke="#000000" points="688.8223,-122 685.8223,-126 664.8223,-126 661.8223,-122 497.1777,-122 497.1777,-86 688.8223,-86 688.8223,-122"/>
<text text-anchor="middle" x="593" y="-99.8" font-family="Times,serif" font-size="14.00" fill="#000000">TranslateModule.forRoot(args)</text>
</g>
<!-- TranslateModule.forRoot(args)&#45;&gt;AppModule -->
<g id="edge11" class="edge">
<title>TranslateModule.forRoot(args)&#45;&gt;AppModule</title>
<path fill="none" stroke="#000000" d="M593,-122.2222C593,-140.8285 593,-167 593,-167 593,-167 1096.2848,-167 1096.2848,-167"/>
<polygon fill="#000000" stroke="#000000" points="1096.2848,-170.5001 1106.2848,-167 1096.2848,-163.5001 1096.2848,-170.5001"/>
</g>
<!-- AppRoutingModule -->
<g id="node13" class="node">
<title>AppRoutingModule</title>
<polygon fill="#8dd3c7" stroke="#000000" points="479.2744,-122 476.2744,-126 455.2744,-126 452.2744,-122 350.7256,-122 350.7256,-86 479.2744,-86 479.2744,-122"/>
<text text-anchor="middle" x="415" y="-99.8" font-family="Times,serif" font-size="14.00" fill="#000000">AppRoutingModule</text>
</g>
<!-- AppRoutingModule&#45;&gt;AppModule -->
<g id="edge12" class="edge">
<title>AppRoutingModule&#45;&gt;AppModule</title>
<path fill="none" stroke="#000000" d="M415,-122.2228C415,-142.3652 415,-172 415,-172 415,-172 1096.2247,-172 1096.2247,-172"/>
<polygon fill="#000000" stroke="#000000" points="1096.2247,-175.5001 1106.2247,-172 1096.2246,-168.5001 1096.2247,-175.5001"/>
</g>
<!-- AuthService -->
<g id="node15" class="node">
<title>AuthService</title>
<ellipse fill="#fdb462" stroke="#000000" cx="268" cy="-104" rx="59.1083" ry="18"/>
<text text-anchor="middle" x="268" y="-99.8" font-family="Times,serif" font-size="14.00" fill="#000000">AuthService</text>
</g>
<!-- AuthService&#45;&gt;AppModule -->
<g id="edge14" class="edge">
<title>AuthService&#45;&gt;AppModule</title>
<path fill="none" stroke="#000000" d="M268,-122.0449C268,-143.6623 268,-177 268,-177 268,-177 1096.1478,-177 1096.1478,-177"/>
<polygon fill="#000000" stroke="#000000" points="1096.1478,-180.5001 1106.1478,-177 1096.1477,-173.5001 1096.1478,-180.5001"/>
</g>
<!-- AuthGuardService -->
<g id="node16" class="node">
<title>AuthGuardService</title>
<ellipse fill="#fdb462" stroke="#000000" cx="107" cy="-104" rx="83.3674" ry="18"/>
<text text-anchor="middle" x="107" y="-99.8" font-family="Times,serif" font-size="14.00" fill="#000000">AuthGuardService</text>
</g>
<!-- AuthGuardService&#45;&gt;AppModule -->
<g id="edge15" class="edge">
<title>AuthGuardService&#45;&gt;AppModule</title>
<path fill="none" stroke="#000000" d="M107,-122.0908C107,-145.1328 107,-182 107,-182 107,-182 1096.2263,-182 1096.2263,-182"/>
<polygon fill="#000000" stroke="#000000" points="1096.2263,-185.5001 1106.2263,-182 1096.2262,-178.5001 1096.2263,-185.5001"/>
</g>
</g>
</svg>
