<?xml version="1.0" encoding="UTF-8" standalone="no"?>
<!DOCTYPE svg PUBLIC "-//W3C//DTD SVG 1.1//EN"
 "http://www.w3.org/Graphics/SVG/1.1/DTD/svg11.dtd">
<!-- Generated by graphviz version 2.40.1 (20161225.0304)
 -->
<!-- Title: dependencies Pages: 1 -->
<svg width="2036pt" height="284pt"
 viewBox="0.00 0.00 2036.00 284.00" xmlns="http://www.w3.org/2000/svg" xmlns:xlink="http://www.w3.org/1999/xlink">
<g id="graph0" class="graph" transform="scale(1 1) rotate(0) translate(4 280)">
<title>dependencies</title>
<polygon fill="#ffffff" stroke="transparent" points="-4,4 -4,-280 2032,-280 2032,4 -4,4"/>
<text text-anchor="start" x="993.0091" y="-42.4" font-family="sans-serif" font-weight="bold" font-size="14.00" fill="#000000">Legend</text>
<polygon fill="#ffffb3" stroke="transparent" points="780,-10 780,-30 800,-30 800,-10 780,-10"/>
<text text-anchor="start" x="803.629" y="-15.4" font-family="sans-serif" font-size="14.00" fill="#000000"> &#160;Declarations</text>
<polygon fill="#8dd3c7" stroke="transparent" points="893,-10 893,-30 913,-30 913,-10 893,-10"/>
<text text-anchor="start" x="916.7251" y="-15.4" font-family="sans-serif" font-size="14.00" fill="#000000"> &#160;Module</text>
<polygon fill="#80b1d3" stroke="transparent" points="979,-10 979,-30 999,-30 999,-10 979,-10"/>
<text text-anchor="start" x="1002.7812" y="-15.4" font-family="sans-serif" font-size="14.00" fill="#000000"> &#160;Bootstrap</text>
<polygon fill="#fdb462" stroke="transparent" points="1076,-10 1076,-30 1096,-30 1096,-10 1076,-10"/>
<text text-anchor="start" x="1099.6732" y="-15.4" font-family="sans-serif" font-size="14.00" fill="#000000"> &#160;Providers</text>
<polygon fill="#fb8072" stroke="transparent" points="1172,-10 1172,-30 1192,-30 1192,-10 1172,-10"/>
<text text-anchor="start" x="1195.7258" y="-15.4" font-family="sans-serif" font-size="14.00" fill="#000000"> &#160;Exports</text>
<g id="clust1" class="cluster">
<title>cluster_UiModule</title>
<polygon fill="none" stroke="#000000" stroke-dasharray="1,5" points="8,-70 8,-268 2020,-268 2020,-70 8,-70"/>
</g>
<g id="clust2" class="cluster">
<title>cluster_UiModule_declarations</title>
<polygon fill="none" stroke="#000000" points="268,-78 268,-130 2012,-130 2012,-78 268,-78"/>
</g>
<g id="clust14" class="cluster">
<title>cluster_UiModule_imports</title>
<polygon fill="none" stroke="#000000" points="16,-78 16,-130 260,-130 260,-78 16,-78"/>
</g>
<g id="clust15" class="cluster">
<title>cluster_UiModule_exports</title>
<polygon fill="none" stroke="#000000" points="193,-208 193,-260 1791,-260 1791,-208 193,-208"/>
</g>
<!-- NestedListComponent -->
<g id="node1" class="node">
<title>NestedListComponent</title>
<polygon fill="#ffffb3" stroke="#000000" points="2003.9818,-122 1862.0182,-122 1862.0182,-86 2003.9818,-86 2003.9818,-122"/>
<text text-anchor="middle" x="1933" y="-99.8" font-family="Times,serif" font-size="14.00" fill="#000000">NestedListComponent</text>
</g>
<!-- UiModule -->
<g id="node12" class="node">
<title>UiModule</title>
<polygon fill="#8dd3c7" stroke="#000000" points="986.5484,-187 983.5484,-191 962.5484,-191 959.5484,-187 913.4516,-187 913.4516,-151 986.5484,-151 986.5484,-187"/>
<text text-anchor="middle" x="950" y="-164.8" font-family="Times,serif" font-size="14.00" fill="#000000">UiModule</text>
</g>
<!-- NestedListComponent&#45;&gt;UiModule -->
<g id="edge1" class="edge">
<title>NestedListComponent&#45;&gt;UiModule</title>
<path fill="none" stroke="#000000" d="M1933,-122.308C1933,-142.1455 1933,-171 1933,-171 1933,-171 996.7407,-171 996.7407,-171"/>
<polygon fill="#000000" stroke="#000000" points="996.7407,-167.5001 986.7407,-171 996.7407,-174.5001 996.7407,-167.5001"/>
</g>
<!-- NestedListInnerComponent -->
<g id="node2" class="node">
<title>NestedListInnerComponent</title>
<polygon fill="#ffffb3" stroke="#000000" points="1843.5183,-122 1672.4817,-122 1672.4817,-86 1843.5183,-86 1843.5183,-122"/>
<text text-anchor="middle" x="1758" y="-99.8" font-family="Times,serif" font-size="14.00" fill="#000000">NestedListInnerComponent</text>
</g>
<!-- NestedListInnerComponent&#45;&gt;UiModule -->
<g id="edge2" class="edge">
<title>NestedListInnerComponent&#45;&gt;UiModule</title>
<path fill="none" stroke="#000000" d="M1727.4911,-122.1686C1727.4911,-141.0898 1727.4911,-168 1727.4911,-168 1727.4911,-168 996.7167,-168 996.7167,-168"/>
<polygon fill="#000000" stroke="#000000" points="996.7167,-164.5001 986.7167,-168 996.7166,-171.5001 996.7167,-164.5001"/>
</g>
<!-- NestedListInnerItemComponent -->
<g id="node3" class="node">
<title>NestedListInnerItemComponent</title>
<polygon fill="#ffffb3" stroke="#000000" points="1654.6741,-122 1457.3259,-122 1457.3259,-86 1654.6741,-86 1654.6741,-122"/>
<text text-anchor="middle" x="1556" y="-99.8" font-family="Times,serif" font-size="14.00" fill="#000000">NestedListInnerItemComponent</text>
</g>
<!-- NestedListInnerItemComponent&#45;&gt;UiModule -->
<g id="edge3" class="edge">
<title>NestedListInnerItemComponent&#45;&gt;UiModule</title>
<path fill="none" stroke="#000000" d="M1538.4609,-122.302C1538.4609,-140.2699 1538.4609,-165 1538.4609,-165 1538.4609,-165 996.8109,-165 996.8109,-165"/>
<polygon fill="#000000" stroke="#000000" points="996.8109,-161.5001 986.8109,-165 996.8108,-168.5001 996.8109,-161.5001"/>
</g>
<!-- SDlComponent -->
<g id="node4" class="node">
<title>SDlComponent</title>
<polygon fill="#ffffb3" stroke="#000000" points="1439.6123,-122 1336.3877,-122 1336.3877,-86 1439.6123,-86 1439.6123,-122"/>
<text text-anchor="middle" x="1388" y="-99.8" font-family="Times,serif" font-size="14.00" fill="#000000">SDlComponent</text>
</g>
<!-- SDlComponent&#45;&gt;UiModule -->
<g id="edge4" class="edge">
<title>SDlComponent&#45;&gt;UiModule</title>
<path fill="none" stroke="#000000" d="M1381.3904,-122.0352C1381.3904,-138.7344 1381.3904,-161 1381.3904,-161 1381.3904,-161 996.7801,-161 996.7801,-161"/>
<polygon fill="#000000" stroke="#000000" points="996.7801,-157.5001 986.7801,-161 996.7801,-164.5001 996.7801,-157.5001"/>
</g>
<!-- StepComponent -->
<g id="node5" class="node">
<title>StepComponent</title>
<polygon fill="#ffffb3" stroke="#000000" points="1318.2204,-122 1211.7796,-122 1211.7796,-86 1318.2204,-86 1318.2204,-122"/>
<text text-anchor="middle" x="1265" y="-99.8" font-family="Times,serif" font-size="14.00" fill="#000000">StepComponent</text>
</g>
<!-- StepComponent&#45;&gt;UiModule -->
<g id="edge5" class="edge">
<title>StepComponent&#45;&gt;UiModule</title>
<path fill="none" stroke="#000000" d="M1218.7764,-122.2819C1218.7764,-137.9478 1218.7764,-158 1218.7764,-158 1218.7764,-158 996.8087,-158 996.8087,-158"/>
<polygon fill="#000000" stroke="#000000" points="996.8087,-154.5001 986.8087,-158 996.8086,-161.5001 996.8087,-154.5001"/>
</g>
<!-- StepperHeaderComponent -->
<g id="node6" class="node">
<title>StepperHeaderComponent</title>
<polygon fill="#ffffb3" stroke="#000000" points="1194.0071,-122 1029.9929,-122 1029.9929,-86 1194.0071,-86 1194.0071,-122"/>
<text text-anchor="middle" x="1112" y="-99.8" font-family="Times,serif" font-size="14.00" fill="#000000">StepperHeaderComponent</text>
</g>
<!-- StepperHeaderComponent&#45;&gt;UiModule -->
<g id="edge6" class="edge">
<title>StepperHeaderComponent&#45;&gt;UiModule</title>
<path fill="none" stroke="#000000" d="M1056.2723,-122.1243C1056.2723,-136.7832 1056.2723,-155 1056.2723,-155 1056.2723,-155 996.5729,-155 996.5729,-155"/>
<polygon fill="#000000" stroke="#000000" points="996.5729,-151.5001 986.5729,-155 996.5728,-158.5001 996.5729,-151.5001"/>
</g>
<!-- StepperComponent -->
<g id="node7" class="node">
<title>StepperComponent</title>
<polygon fill="#ffffb3" stroke="#000000" points="1012.0954,-122 887.9046,-122 887.9046,-86 1012.0954,-86 1012.0954,-122"/>
<text text-anchor="middle" x="950" y="-99.8" font-family="Times,serif" font-size="14.00" fill="#000000">StepperComponent</text>
</g>
<!-- StepperComponent&#45;&gt;UiModule -->
<g id="edge7" class="edge">
<title>StepperComponent&#45;&gt;UiModule</title>
<path fill="none" stroke="#000000" d="M950,-122.1061C950,-122.1061 950,-140.991 950,-140.991"/>
<polygon fill="#000000" stroke="#000000" points="946.5001,-140.9909 950,-150.991 953.5001,-140.991 946.5001,-140.9909"/>
</g>
<!-- StudentsSelectorComponent -->
<g id="node8" class="node">
<title>StudentsSelectorComponent</title>
<polygon fill="#ffffb3" stroke="#000000" points="869.9241,-122 694.0759,-122 694.0759,-86 869.9241,-86 869.9241,-122"/>
<text text-anchor="middle" x="782" y="-99.8" font-family="Times,serif" font-size="14.00" fill="#000000">StudentsSelectorComponent</text>
</g>
<!-- StudentsSelectorComponent&#45;&gt;UiModule -->
<g id="edge8" class="edge">
<title>StudentsSelectorComponent&#45;&gt;UiModule</title>
<path fill="none" stroke="#000000" d="M848.4259,-122.1243C848.4259,-136.7832 848.4259,-155 848.4259,-155 848.4259,-155 903.3294,-155 903.3294,-155"/>
<polygon fill="#000000" stroke="#000000" points="903.3294,-158.5001 913.3294,-155 903.3294,-151.5001 903.3294,-158.5001"/>
</g>
<!-- HighlightPipe -->
<g id="node9" class="node">
<title>HighlightPipe</title>
<polygon fill="#ffffb3" stroke="#000000" points="676.0578,-122 581.9422,-122 581.9422,-86 676.0578,-86 676.0578,-122"/>
<text text-anchor="middle" x="629" y="-99.8" font-family="Times,serif" font-size="14.00" fill="#000000">HighlightPipe</text>
</g>
<!-- HighlightPipe&#45;&gt;UiModule -->
<g id="edge9" class="edge">
<title>HighlightPipe&#45;&gt;UiModule</title>
<path fill="none" stroke="#000000" d="M653.4083,-122.2819C653.4083,-137.9478 653.4083,-158 653.4083,-158 653.4083,-158 903.3346,-158 903.3346,-158"/>
<polygon fill="#000000" stroke="#000000" points="903.3346,-161.5001 913.3346,-158 903.3345,-154.5001 903.3346,-161.5001"/>
</g>
<!-- RomanNumeralsPipe -->
<g id="node10" class="node">
<title>RomanNumeralsPipe</title>
<polygon fill="#ffffb3" stroke="#000000" points="563.752,-122 428.248,-122 428.248,-86 563.752,-86 563.752,-122"/>
<text text-anchor="middle" x="496" y="-99.8" font-family="Times,serif" font-size="14.00" fill="#000000">RomanNumeralsPipe</text>
</g>
<!-- RomanNumeralsPipe&#45;&gt;UiModule -->
<g id="edge10" class="edge">
<title>RomanNumeralsPipe&#45;&gt;UiModule</title>
<path fill="none" stroke="#000000" d="M539.4238,-122.0352C539.4238,-138.7344 539.4238,-161 539.4238,-161 539.4238,-161 903.2028,-161 903.2028,-161"/>
<polygon fill="#000000" stroke="#000000" points="903.2028,-164.5001 913.2028,-161 903.2027,-157.5001 903.2028,-164.5001"/>
</g>
<!-- WithoutStudentsPipe -->
<g id="node11" class="node">
<title>WithoutStudentsPipe</title>
<polygon fill="#ffffb3" stroke="#000000" points="410.4972,-122 275.5028,-122 275.5028,-86 410.4972,-86 410.4972,-122"/>
<text text-anchor="middle" x="343" y="-99.8" font-family="Times,serif" font-size="14.00" fill="#000000">WithoutStudentsPipe</text>
</g>
<!-- WithoutStudentsPipe&#45;&gt;UiModule -->
<g id="edge11" class="edge">
<title>WithoutStudentsPipe&#45;&gt;UiModule</title>
<path fill="none" stroke="#000000" d="M383.9364,-122.302C383.9364,-140.2699 383.9364,-165 383.9363,-165 383.9363,-165 903.2951,-165 903.2951,-165"/>
<polygon fill="#000000" stroke="#000000" points="903.2952,-168.5001 913.2951,-165 903.2951,-161.5001 903.2952,-168.5001"/>
</g>
<!-- NestedListComponent  -->
<g id="node15" class="node">
<title>NestedListComponent </title>
<polygon fill="#fb8072" stroke="#000000" points="1782.9826,-252 1637.0174,-252 1637.0174,-216 1782.9826,-216 1782.9826,-252"/>
<text text-anchor="middle" x="1710" y="-229.8" font-family="Times,serif" font-size="14.00" fill="#000000">NestedListComponent </text>
</g>
<!-- UiModule&#45;&gt;NestedListComponent  -->
<g id="edge14" class="edge">
<title>UiModule&#45;&gt;NestedListComponent </title>
<path fill="none" stroke="#000000" stroke-dasharray="5,2" d="M986.9245,-174C1130.7975,-174 1645.923,-174 1645.923,-174 1645.923,-174 1645.923,-205.998 1645.923,-205.998"/>
<polygon fill="#000000" stroke="#000000" points="1642.4231,-205.998 1645.923,-215.998 1649.4231,-205.9981 1642.4231,-205.998"/>
</g>
<!-- NestedListInnerComponent  -->
<g id="node16" class="node">
<title>NestedListInnerComponent </title>
<polygon fill="#fb8072" stroke="#000000" points="1619.5176,-252 1444.4824,-252 1444.4824,-216 1619.5176,-216 1619.5176,-252"/>
<text text-anchor="middle" x="1532" y="-229.8" font-family="Times,serif" font-size="14.00" fill="#000000">NestedListInnerComponent </text>
</g>
<!-- UiModule&#45;&gt;NestedListInnerComponent  -->
<g id="edge15" class="edge">
<title>UiModule&#45;&gt;NestedListInnerComponent </title>
<path fill="none" stroke="#000000" stroke-dasharray="5,2" d="M986.8362,-178C1102.5249,-178 1450.9521,-178 1450.9521,-178 1450.9521,-178 1450.9521,-205.973 1450.9521,-205.973"/>
<polygon fill="#000000" stroke="#000000" points="1447.4522,-205.973 1450.9521,-215.973 1454.4522,-205.973 1447.4522,-205.973"/>
</g>
<!-- NestedListInnerItemComponent  -->
<g id="node17" class="node">
<title>NestedListInnerItemComponent </title>
<polygon fill="#fb8072" stroke="#000000" points="1426.1743,-252 1225.8257,-252 1225.8257,-216 1426.1743,-216 1426.1743,-252"/>
<text text-anchor="middle" x="1326" y="-229.8" font-family="Times,serif" font-size="14.00" fill="#000000">NestedListInnerItemComponent </text>
</g>
<!-- UiModule&#45;&gt;NestedListInnerItemComponent  -->
<g id="edge16" class="edge">
<title>UiModule&#45;&gt;NestedListInnerItemComponent </title>
<path fill="none" stroke="#000000" stroke-dasharray="5,2" d="M986.6111,-181C1070.9773,-181 1271.8866,-181 1271.8866,-181 1271.8866,-181 1271.8866,-205.7604 1271.8866,-205.7604"/>
<polygon fill="#000000" stroke="#000000" points="1268.3866,-205.7604 1271.8866,-215.7604 1275.3866,-205.7604 1268.3866,-205.7604"/>
</g>
<!-- SDlComponent  -->
<g id="node18" class="node">
<title>SDlComponent </title>
<polygon fill="#fb8072" stroke="#000000" points="1207.1129,-252 1100.8871,-252 1100.8871,-216 1207.1129,-216 1207.1129,-252"/>
<text text-anchor="middle" x="1154" y="-229.8" font-family="Times,serif" font-size="14.00" fill="#000000">SDlComponent </text>
</g>
<!-- UiModule&#45;&gt;SDlComponent  -->
<g id="edge17" class="edge">
<title>UiModule&#45;&gt;SDlComponent </title>
<path fill="none" stroke="#000000" stroke-dasharray="5,2" d="M986.6805,-184C1043.7883,-184 1147.4736,-184 1147.4736,-184 1147.4736,-184 1147.4736,-205.9489 1147.4736,-205.9489"/>
<polygon fill="#000000" stroke="#000000" points="1143.9736,-205.9488 1147.4736,-215.9489 1150.9736,-205.9489 1143.9736,-205.9488"/>
</g>
<!-- StepperComponent  -->
<g id="node19" class="node">
<title>StepperComponent </title>
<polygon fill="#fb8072" stroke="#000000" points="1082.596,-252 955.404,-252 955.404,-216 1082.596,-216 1082.596,-252"/>
<text text-anchor="middle" x="1019" y="-229.8" font-family="Times,serif" font-size="14.00" fill="#000000">StepperComponent </text>
</g>
<!-- UiModule&#45;&gt;StepperComponent  -->
<g id="edge18" class="edge">
<title>UiModule&#45;&gt;StepperComponent </title>
<path fill="none" stroke="#000000" stroke-dasharray="5,2" d="M970.9879,-187.1061C970.9879,-187.1061 970.9879,-205.991 970.9879,-205.991"/>
<polygon fill="#000000" stroke="#000000" points="967.488,-205.9909 970.9879,-215.991 974.488,-205.991 967.488,-205.9909"/>
</g>
<!-- StepComponent  -->
<g id="node20" class="node">
<title>StepComponent </title>
<polygon fill="#fb8072" stroke="#000000" points="936.7206,-252 827.2794,-252 827.2794,-216 936.7206,-216 936.7206,-252"/>
<text text-anchor="middle" x="882" y="-229.8" font-family="Times,serif" font-size="14.00" fill="#000000">StepComponent </text>
</g>
<!-- UiModule&#45;&gt;StepComponent  -->
<g id="edge19" class="edge">
<title>UiModule&#45;&gt;StepComponent </title>
<path fill="none" stroke="#000000" stroke-dasharray="5,2" d="M925.0433,-187.1061C925.0433,-187.1061 925.0433,-205.991 925.0433,-205.991"/>
<polygon fill="#000000" stroke="#000000" points="921.5434,-205.9909 925.0433,-215.991 928.5434,-205.991 921.5434,-205.9909"/>
</g>
<!-- StudentsSelectorComponent  -->
<g id="node21" class="node">
<title>StudentsSelectorComponent </title>
<polygon fill="#fb8072" stroke="#000000" points="809.4236,-252 630.5764,-252 630.5764,-216 809.4236,-216 809.4236,-252"/>
<text text-anchor="middle" x="720" y="-229.8" font-family="Times,serif" font-size="14.00" fill="#000000">StudentsSelectorComponent </text>
</g>
<!-- UiModule&#45;&gt;StudentsSelectorComponent  -->
<g id="edge20" class="edge">
<title>UiModule&#45;&gt;StudentsSelectorComponent </title>
<path fill="none" stroke="#000000" stroke-dasharray="5,2" d="M913.1985,-184C855.9023,-184 751.875,-184 751.875,-184 751.875,-184 751.875,-205.9489 751.875,-205.9489"/>
<polygon fill="#000000" stroke="#000000" points="748.3751,-205.9488 751.875,-215.9489 755.3751,-205.9489 748.3751,-205.9488"/>
</g>
<!-- HighlightPipe  -->
<g id="node22" class="node">
<title>HighlightPipe </title>
<polygon fill="#fb8072" stroke="#000000" points="613.0568,-252 514.9432,-252 514.9432,-216 613.0568,-216 613.0568,-252"/>
<text text-anchor="middle" x="564" y="-229.8" font-family="Times,serif" font-size="14.00" fill="#000000">HighlightPipe </text>
</g>
<!-- UiModule&#45;&gt;HighlightPipe  -->
<g id="edge21" class="edge">
<title>UiModule&#45;&gt;HighlightPipe </title>
<path fill="none" stroke="#000000" stroke-dasharray="5,2" d="M913.2609,-181C822.9448,-181 597.375,-181 597.375,-181 597.375,-181 597.375,-205.7604 597.375,-205.7604"/>
<polygon fill="#000000" stroke="#000000" points="593.8751,-205.7604 597.375,-215.7604 600.8751,-205.7604 593.8751,-205.7604"/>
</g>
<!-- RomanNumeralsPipe  -->
<g id="node23" class="node">
<title>RomanNumeralsPipe </title>
<polygon fill="#fb8072" stroke="#000000" points="496.752,-252 357.248,-252 357.248,-216 496.752,-216 496.752,-252"/>
<text text-anchor="middle" x="427" y="-229.8" font-family="Times,serif" font-size="14.00" fill="#000000">RomanNumeralsPipe </text>
</g>
<!-- UiModule&#45;&gt;RomanNumeralsPipe  -->
<g id="edge22" class="edge">
<title>UiModule&#45;&gt;RomanNumeralsPipe </title>
<path fill="none" stroke="#000000" stroke-dasharray="5,2" d="M913.3489,-178C799.9461,-178 462.375,-178 462.375,-178 462.375,-178 462.375,-205.973 462.375,-205.973"/>
<polygon fill="#000000" stroke="#000000" points="458.8751,-205.973 462.375,-215.973 465.8751,-205.973 458.8751,-205.973"/>
</g>
<!-- WithoutStudentsPipe  -->
<g id="node24" class="node">
<title>WithoutStudentsPipe </title>
<polygon fill="#fb8072" stroke="#000000" points="339.4981,-252 200.5019,-252 200.5019,-216 339.4981,-216 339.4981,-252"/>
<text text-anchor="middle" x="270" y="-229.8" font-family="Times,serif" font-size="14.00" fill="#000000">WithoutStudentsPipe </text>
</g>
<!-- UiModule&#45;&gt;WithoutStudentsPipe  -->
<g id="edge23" class="edge">
<title>UiModule&#45;&gt;WithoutStudentsPipe </title>
<path fill="none" stroke="#000000" stroke-dasharray="5,2" d="M913.1416,-174C776.5921,-174 307.375,-174 307.375,-174 307.375,-174 307.375,-205.998 307.375,-205.998"/>
<polygon fill="#000000" stroke="#000000" points="303.8751,-205.998 307.375,-215.998 310.8751,-205.9981 303.8751,-205.998"/>
</g>
<!-- CommonModule -->
<g id="node13" class="node">
<title>CommonModule</title>
<polygon fill="#8dd3c7" stroke="#000000" points="251.6681,-122 248.6681,-126 227.6681,-126 224.6681,-122 140.3319,-122 140.3319,-86 251.6681,-86 251.6681,-122"/>
<text text-anchor="middle" x="196" y="-99.8" font-family="Times,serif" font-size="14.00" fill="#000000">CommonModule</text>
</g>
<!-- CommonModule&#45;&gt;UiModule -->
<g id="edge12" class="edge">
<title>CommonModule&#45;&gt;UiModule</title>
<path fill="none" stroke="#000000" d="M226.2926,-122.1686C226.2926,-141.0898 226.2926,-168 226.2926,-168 226.2926,-168 903.1163,-168 903.1163,-168"/>
<polygon fill="#000000" stroke="#000000" points="903.1163,-171.5001 913.1163,-168 903.1163,-164.5001 903.1163,-171.5001"/>
</g>
<!-- SharedModule -->
<g id="node14" class="node">
<title>SharedModule</title>
<polygon fill="#8dd3c7" stroke="#000000" points="122.4231,-122 119.4231,-126 98.4231,-126 95.4231,-122 23.5769,-122 23.5769,-86 122.4231,-86 122.4231,-122"/>
<text text-anchor="middle" x="73" y="-99.8" font-family="Times,serif" font-size="14.00" fill="#000000">SharedModule</text>
</g>
<!-- SharedModule&#45;&gt;UiModule -->
<g id="edge13" class="edge">
<title>SharedModule&#45;&gt;UiModule</title>
<path fill="none" stroke="#000000" d="M73,-122.308C73,-142.1455 73,-171 73,-171 73,-171 903.433,-171 903.433,-171"/>
<polygon fill="#000000" stroke="#000000" points="903.433,-174.5001 913.433,-171 903.4329,-167.5001 903.433,-174.5001"/>
</g>
</g>
</svg>
