<?xml version="1.0" encoding="UTF-8" standalone="no"?>
<!DOCTYPE svg PUBLIC "-//W3C//DTD SVG 1.1//EN"
 "http://www.w3.org/Graphics/SVG/1.1/DTD/svg11.dtd">
<!-- Generated by graphviz version 2.40.1 (20161225.0304)
 -->
<!-- Title: dependencies Pages: 1 -->
<svg width="1170pt" height="284pt"
 viewBox="0.00 0.00 1170.00 284.00" xmlns="http://www.w3.org/2000/svg" xmlns:xlink="http://www.w3.org/1999/xlink">
<g id="graph0" class="graph" transform="scale(1 1) rotate(0) translate(4 280)">
<title>dependencies</title>
<polygon fill="#ffffff" stroke="transparent" points="-4,4 -4,-280 1166,-280 1166,4 -4,4"/>
<text text-anchor="start" x="560.0091" y="-42.4" font-family="sans-serif" font-weight="bold" font-size="14.00" fill="#000000">Legend</text>
<polygon fill="#ffffb3" stroke="transparent" points="347,-10 347,-30 367,-30 367,-10 347,-10"/>
<text text-anchor="start" x="370.629" y="-15.4" font-family="sans-serif" font-size="14.00" fill="#000000"> &#160;Declarations</text>
<polygon fill="#8dd3c7" stroke="transparent" points="460,-10 460,-30 480,-30 480,-10 460,-10"/>
<text text-anchor="start" x="483.7251" y="-15.4" font-family="sans-serif" font-size="14.00" fill="#000000"> &#160;Module</text>
<polygon fill="#80b1d3" stroke="transparent" points="546,-10 546,-30 566,-30 566,-10 546,-10"/>
<text text-anchor="start" x="569.7812" y="-15.4" font-family="sans-serif" font-size="14.00" fill="#000000"> &#160;Bootstrap</text>
<polygon fill="#fdb462" stroke="transparent" points="643,-10 643,-30 663,-30 663,-10 643,-10"/>
<text text-anchor="start" x="666.6732" y="-15.4" font-family="sans-serif" font-size="14.00" fill="#000000"> &#160;Providers</text>
<polygon fill="#fb8072" stroke="transparent" points="739,-10 739,-30 759,-30 759,-10 739,-10"/>
<text text-anchor="start" x="762.7258" y="-15.4" font-family="sans-serif" font-size="14.00" fill="#000000"> &#160;Exports</text>
<g id="clust1" class="cluster">
<title>cluster_TestModule</title>
<polygon fill="none" stroke="#000000" stroke-dasharray="1,5" points="8,-70 8,-268 1154,-268 1154,-70 8,-70"/>
</g>
<g id="clust2" class="cluster">
<title>cluster_TestModule_declarations</title>
<polygon fill="none" stroke="#000000" points="609,-78 609,-130 1146,-130 1146,-78 609,-78"/>
</g>
<g id="clust7" class="cluster">
<title>cluster_TestModule_imports</title>
<polygon fill="none" stroke="#000000" points="210,-78 210,-130 601,-130 601,-78 210,-78"/>
</g>
<g id="clust8" class="cluster">
<title>cluster_TestModule_exports</title>
<polygon fill="none" stroke="#000000" points="544,-208 544,-260 658,-260 658,-208 544,-208"/>
</g>
<g id="clust10" class="cluster">
<title>cluster_TestModule_providers</title>
<polygon fill="none" stroke="#000000" points="16,-78 16,-130 202,-130 202,-78 16,-78"/>
</g>
<!-- TestComponent -->
<g id="node1" class="node">
<title>TestComponent</title>
<polygon fill="#ffffb3" stroke="#000000" points="1137.9357,-122 1032.0643,-122 1032.0643,-86 1137.9357,-86 1137.9357,-122"/>
<text text-anchor="middle" x="1085" y="-99.8" font-family="Times,serif" font-size="14.00" fill="#000000">TestComponent</text>
</g>
<!-- TestModule -->
<g id="node5" class="node">
<title>TestModule</title>
<polygon fill="#8dd3c7" stroke="#000000" points="642.6529,-187 639.6529,-191 618.6529,-191 615.6529,-187 559.3471,-187 559.3471,-151 642.6529,-151 642.6529,-187"/>
<text text-anchor="middle" x="601" y="-164.8" font-family="Times,serif" font-size="14.00" fill="#000000">TestModule</text>
</g>
<!-- TestComponent&#45;&gt;TestModule -->
<g id="edge1" class="edge">
<title>TestComponent&#45;&gt;TestModule</title>
<path fill="none" stroke="#000000" d="M1085,-122.2921C1085,-144.2057 1085,-178 1085,-178 1085,-178 652.6845,-178 652.6845,-178"/>
<polygon fill="#000000" stroke="#000000" points="652.6845,-174.5001 642.6845,-178 652.6844,-181.5001 652.6845,-174.5001"/>
</g>
<!-- EmptyComponent -->
<g id="node2" class="node">
<title>EmptyComponent</title>
<polygon fill="#ffffb3" stroke="#000000" points="1014.1667,-122 895.8333,-122 895.8333,-86 1014.1667,-86 1014.1667,-122"/>
<text text-anchor="middle" x="955" y="-99.8" font-family="Times,serif" font-size="14.00" fill="#000000">EmptyComponent</text>
</g>
<!-- EmptyComponent&#45;&gt;TestModule -->
<g id="edge2" class="edge">
<title>EmptyComponent&#45;&gt;TestModule</title>
<path fill="none" stroke="#000000" d="M955,-122.1061C955,-141.3391 955,-169 955,-169 955,-169 652.9986,-169 652.9986,-169"/>
<polygon fill="#000000" stroke="#000000" points="652.9986,-165.5001 642.9986,-169 652.9985,-172.5001 652.9986,-165.5001"/>
</g>
<!-- ClassroomsComponent -->
<g id="node3" class="node">
<title>ClassroomsComponent</title>
<polygon fill="#ffffb3" stroke="#000000" points="877.1596,-122 730.8404,-122 730.8404,-86 877.1596,-86 877.1596,-122"/>
<text text-anchor="middle" x="804" y="-99.8" font-family="Times,serif" font-size="14.00" fill="#000000">ClassroomsComponent</text>
</g>
<!-- ClassroomsComponent&#45;&gt;TestModule -->
<g id="edge3" class="edge">
<title>ClassroomsComponent&#45;&gt;TestModule</title>
<path fill="none" stroke="#000000" d="M804,-122.027C804,-138.3976 804,-160 804,-160 804,-160 653.0617,-160 653.0617,-160"/>
<polygon fill="#000000" stroke="#000000" points="653.0618,-156.5001 643.0617,-160 653.0617,-163.5001 653.0618,-156.5001"/>
</g>
<!-- UiComponent -->
<g id="node4" class="node">
<title>UiComponent</title>
<polygon fill="#ffffb3" stroke="#000000" points="712.8302,-122 617.1698,-122 617.1698,-86 712.8302,-86 712.8302,-122"/>
<text text-anchor="middle" x="665" y="-99.8" font-family="Times,serif" font-size="14.00" fill="#000000">UiComponent</text>
</g>
<!-- UiComponent&#45;&gt;TestModule -->
<g id="edge4" class="edge">
<title>UiComponent&#45;&gt;TestModule</title>
<path fill="none" stroke="#000000" d="M630.0807,-122.1061C630.0807,-122.1061 630.0807,-140.991 630.0807,-140.991"/>
<polygon fill="#000000" stroke="#000000" points="626.5807,-140.9909 630.0807,-150.991 633.5807,-140.991 626.5807,-140.9909"/>
</g>
<!-- UiComponent  -->
<g id="node9" class="node">
<title>UiComponent </title>
<polygon fill="#fb8072" stroke="#000000" points="650.3297,-252 551.6703,-252 551.6703,-216 650.3297,-216 650.3297,-252"/>
<text text-anchor="middle" x="601" y="-229.8" font-family="Times,serif" font-size="14.00" fill="#000000">UiComponent </text>
</g>
<!-- TestModule&#45;&gt;UiComponent  -->
<g id="edge8" class="edge">
<title>TestModule&#45;&gt;UiComponent </title>
<path fill="none" stroke="#000000" stroke-dasharray="5,2" d="M601,-187.1061C601,-187.1061 601,-205.991 601,-205.991"/>
<polygon fill="#000000" stroke="#000000" points="597.5001,-205.9909 601,-215.991 604.5001,-205.991 597.5001,-205.9909"/>
</g>
<!-- CommonModule -->
<g id="node6" class="node">
<title>CommonModule</title>
<polygon fill="#8dd3c7" stroke="#000000" points="592.6681,-122 589.6681,-126 568.6681,-126 565.6681,-122 481.3319,-122 481.3319,-86 592.6681,-86 592.6681,-122"/>
<text text-anchor="middle" x="537" y="-99.8" font-family="Times,serif" font-size="14.00" fill="#000000">CommonModule</text>
</g>
<!-- CommonModule&#45;&gt;TestModule -->
<g id="edge5" class="edge">
<title>CommonModule&#45;&gt;TestModule</title>
<path fill="none" stroke="#000000" d="M576.0039,-122.1061C576.0039,-122.1061 576.0039,-140.991 576.0039,-140.991"/>
<polygon fill="#000000" stroke="#000000" points="572.5039,-140.9909 576.0039,-150.991 579.5039,-140.991 572.5039,-140.9909"/>
</g>
<!-- SharedModule -->
<g id="node7" class="node">
<title>SharedModule</title>
<polygon fill="#8dd3c7" stroke="#000000" points="463.4231,-122 460.4231,-126 439.4231,-126 436.4231,-122 364.5769,-122 364.5769,-86 463.4231,-86 463.4231,-122"/>
<text text-anchor="middle" x="414" y="-99.8" font-family="Times,serif" font-size="14.00" fill="#000000">SharedModule</text>
</g>
<!-- SharedModule&#45;&gt;TestModule -->
<g id="edge6" class="edge">
<title>SharedModule&#45;&gt;TestModule</title>
<path fill="none" stroke="#000000" d="M414,-122.027C414,-138.3976 414,-160 414,-160 414,-160 549.0335,-160 549.0335,-160"/>
<polygon fill="#000000" stroke="#000000" points="549.0336,-163.5001 559.0335,-160 549.0335,-156.5001 549.0336,-163.5001"/>
</g>
<!-- TestRoutingModule -->
<g id="node8" class="node">
<title>TestRoutingModule</title>
<polygon fill="#8dd3c7" stroke="#000000" points="346.2702,-122 343.2702,-126 322.2702,-126 319.2702,-122 217.7298,-122 217.7298,-86 346.2702,-86 346.2702,-122"/>
<text text-anchor="middle" x="282" y="-99.8" font-family="Times,serif" font-size="14.00" fill="#000000">TestRoutingModule</text>
</g>
<!-- TestRoutingModule&#45;&gt;TestModule -->
<g id="edge7" class="edge">
<title>TestRoutingModule&#45;&gt;TestModule</title>
<path fill="none" stroke="#000000" d="M282,-122.1061C282,-141.3391 282,-169 282,-169 282,-169 549.2963,-169 549.2963,-169"/>
<polygon fill="#000000" stroke="#000000" points="549.2964,-172.5001 559.2963,-169 549.2963,-165.5001 549.2964,-172.5001"/>
</g>
<!-- ClassroomsService -->
<g id="node10" class="node">
<title>ClassroomsService</title>
<ellipse fill="#fdb462" stroke="#000000" cx="109" cy="-104" rx="85.1063" ry="18"/>
<text text-anchor="middle" x="109" y="-99.8" font-family="Times,serif" font-size="14.00" fill="#000000">ClassroomsService</text>
</g>
<!-- ClassroomsService&#45;&gt;TestModule -->
<g id="edge9" class="edge">
<title>ClassroomsService&#45;&gt;TestModule</title>
<path fill="none" stroke="#000000" d="M109,-122.2921C109,-144.2057 109,-178 109,-178 109,-178 549.0524,-178 549.0524,-178"/>
<polygon fill="#000000" stroke="#000000" points="549.0524,-181.5001 559.0524,-178 549.0523,-174.5001 549.0524,-181.5001"/>
</g>
</g>
</svg>
