<?xml version="1.0" encoding="UTF-8" standalone="no"?>
<!DOCTYPE svg PUBLIC "-//W3C//DTD SVG 1.1//EN"
 "http://www.w3.org/Graphics/SVG/1.1/DTD/svg11.dtd">
<!-- Generated by graphviz version 2.40.1 (20161225.0304)
 -->
<!-- Title: dependencies Pages: 1 -->
<svg width="686pt" height="211pt"
 viewBox="0.00 0.00 686.00 211.00" xmlns="http://www.w3.org/2000/svg" xmlns:xlink="http://www.w3.org/1999/xlink">
<g id="graph0" class="graph" transform="scale(1 1) rotate(0) translate(4 207)">
<title>dependencies</title>
<polygon fill="#ffffff" stroke="transparent" points="-4,4 -4,-207 682,-207 682,4 -4,4"/>
<text text-anchor="start" x="318.0091" y="-42.4" font-family="sans-serif" font-weight="bold" font-size="14.00" fill="#000000">Legend</text>
<polygon fill="#ffffb3" stroke="transparent" points="105,-10 105,-30 125,-30 125,-10 105,-10"/>
<text text-anchor="start" x="128.629" y="-15.4" font-family="sans-serif" font-size="14.00" fill="#000000"> &#160;Declarations</text>
<polygon fill="#8dd3c7" stroke="transparent" points="218,-10 218,-30 238,-30 238,-10 218,-10"/>
<text text-anchor="start" x="241.7251" y="-15.4" font-family="sans-serif" font-size="14.00" fill="#000000"> &#160;Module</text>
<polygon fill="#80b1d3" stroke="transparent" points="304,-10 304,-30 324,-30 324,-10 304,-10"/>
<text text-anchor="start" x="327.7812" y="-15.4" font-family="sans-serif" font-size="14.00" fill="#000000"> &#160;Bootstrap</text>
<polygon fill="#fdb462" stroke="transparent" points="401,-10 401,-30 421,-30 421,-10 401,-10"/>
<text text-anchor="start" x="424.6732" y="-15.4" font-family="sans-serif" font-size="14.00" fill="#000000"> &#160;Providers</text>
<polygon fill="#fb8072" stroke="transparent" points="497,-10 497,-30 517,-30 517,-10 497,-10"/>
<text text-anchor="start" x="520.7258" y="-15.4" font-family="sans-serif" font-size="14.00" fill="#000000"> &#160;Exports</text>
<g id="clust1" class="cluster">
<title>cluster_LoginModule</title>
<polygon fill="none" stroke="#000000" stroke-dasharray="1,5" points="8,-70 8,-195 670,-195 670,-70 8,-70"/>
</g>
<g id="clust2" class="cluster">
<title>cluster_LoginModule_declarations</title>
<polygon fill="none" stroke="#000000" points="532,-78 532,-130 662,-130 662,-78 532,-78"/>
</g>
<g id="clust4" class="cluster">
<title>cluster_LoginModule_imports</title>
<polygon fill="none" stroke="#000000" points="166,-78 166,-130 524,-130 524,-78 166,-78"/>
</g>
<g id="clust7" class="cluster">
<title>cluster_LoginModule_providers</title>
<polygon fill="none" stroke="#000000" points="16,-78 16,-130 158,-130 158,-78 16,-78"/>
</g>
<!-- LoginComponent -->
<g id="node1" class="node">
<title>LoginComponent</title>
<polygon fill="#ffffb3" stroke="#000000" points="654.2758,-122 539.7242,-122 539.7242,-86 654.2758,-86 654.2758,-122"/>
<text text-anchor="middle" x="597" y="-99.8" font-family="Times,serif" font-size="14.00" fill="#000000">LoginComponent</text>
</g>
<!-- LoginModule -->
<g id="node2" class="node">
<title>LoginModule</title>
<polygon fill="#8dd3c7" stroke="#000000" points="383.493,-187 380.493,-191 359.493,-191 356.493,-187 290.507,-187 290.507,-151 383.493,-151 383.493,-187"/>
<text text-anchor="middle" x="337" y="-164.8" font-family="Times,serif" font-size="14.00" fill="#000000">LoginModule</text>
</g>
<!-- LoginComponent&#45;&gt;LoginModule -->
<g id="edge1" class="edge">
<title>LoginComponent&#45;&gt;LoginModule</title>
<path fill="none" stroke="#000000" d="M597,-122.2843C597,-143.3211 597,-175 597,-175 597,-175 393.7831,-175 393.7831,-175"/>
<polygon fill="#000000" stroke="#000000" points="393.7831,-171.5001 383.7831,-175 393.783,-178.5001 393.7831,-171.5001"/>
</g>
<!-- CommonModule -->
<g id="node3" class="node">
<title>CommonModule</title>
<polygon fill="#8dd3c7" stroke="#000000" points="515.6681,-122 512.6681,-126 491.6681,-126 488.6681,-122 404.3319,-122 404.3319,-86 515.6681,-86 515.6681,-122"/>
<text text-anchor="middle" x="460" y="-99.8" font-family="Times,serif" font-size="14.00" fill="#000000">CommonModule</text>
</g>
<!-- CommonModule&#45;&gt;LoginModule -->
<g id="edge2" class="edge">
<title>CommonModule&#45;&gt;LoginModule</title>
<path fill="none" stroke="#000000" d="M460,-122.0225C460,-139.3734 460,-163 460,-163 460,-163 393.501,-163 393.501,-163"/>
<polygon fill="#000000" stroke="#000000" points="393.5011,-159.5001 383.501,-163 393.501,-166.5001 393.5011,-159.5001"/>
</g>
<!-- SharedModule -->
<g id="node4" class="node">
<title>SharedModule</title>
<polygon fill="#8dd3c7" stroke="#000000" points="386.4231,-122 383.4231,-126 362.4231,-126 359.4231,-122 287.5769,-122 287.5769,-86 386.4231,-86 386.4231,-122"/>
<text text-anchor="middle" x="337" y="-99.8" font-family="Times,serif" font-size="14.00" fill="#000000">SharedModule</text>
</g>
<!-- SharedModule&#45;&gt;LoginModule -->
<g id="edge3" class="edge">
<title>SharedModule&#45;&gt;LoginModule</title>
<path fill="none" stroke="#000000" d="M337,-122.1061C337,-122.1061 337,-140.991 337,-140.991"/>
<polygon fill="#000000" stroke="#000000" points="333.5001,-140.9909 337,-150.991 340.5001,-140.991 333.5001,-140.9909"/>
</g>
<!-- FormsModule -->
<g id="node5" class="node">
<title>FormsModule</title>
<polygon fill="#8dd3c7" stroke="#000000" points="269.8288,-122 266.8288,-126 245.8288,-126 242.8288,-122 174.1712,-122 174.1712,-86 269.8288,-86 269.8288,-122"/>
<text text-anchor="middle" x="222" y="-99.8" font-family="Times,serif" font-size="14.00" fill="#000000">FormsModule</text>
</g>
<!-- FormsModule&#45;&gt;LoginModule -->
<g id="edge4" class="edge">
<title>FormsModule&#45;&gt;LoginModule</title>
<path fill="none" stroke="#000000" d="M222,-122.0225C222,-139.3734 222,-163 222,-163 222,-163 280.2251,-163 280.2251,-163"/>
<polygon fill="#000000" stroke="#000000" points="280.2251,-166.5001 290.2251,-163 280.2251,-159.5001 280.2251,-166.5001"/>
</g>
<!-- LoginService -->
<g id="node6" class="node">
<title>LoginService</title>
<ellipse fill="#fdb462" stroke="#000000" cx="87" cy="-104" rx="63.1209" ry="18"/>
<text text-anchor="middle" x="87" y="-99.8" font-family="Times,serif" font-size="14.00" fill="#000000">LoginService</text>
</g>
<!-- LoginService&#45;&gt;LoginModule -->
<g id="edge5" class="edge">
<title>LoginService&#45;&gt;LoginModule</title>
<path fill="none" stroke="#000000" d="M87,-122.2843C87,-143.3211 87,-175 87,-175 87,-175 280.2702,-175 280.2702,-175"/>
<polygon fill="#000000" stroke="#000000" points="280.2702,-178.5001 290.2702,-175 280.2701,-171.5001 280.2702,-178.5001"/>
</g>
</g>
</svg>
