<?xml version="1.0" encoding="UTF-8" standalone="no"?>
<!DOCTYPE svg PUBLIC "-//W3C//DTD SVG 1.1//EN"
 "http://www.w3.org/Graphics/SVG/1.1/DTD/svg11.dtd">
<!-- Generated by graphviz version 2.40.1 (20161225.0304)
 -->
<!-- Title: dependencies Pages: 1 -->
<svg width="912pt" height="211pt"
 viewBox="0.00 0.00 912.00 211.00" xmlns="http://www.w3.org/2000/svg" xmlns:xlink="http://www.w3.org/1999/xlink">
<g id="graph0" class="graph" transform="scale(1 1) rotate(0) translate(4 207)">
<title>dependencies</title>
<polygon fill="#ffffff" stroke="transparent" points="-4,4 -4,-207 908,-207 908,4 -4,4"/>
<text text-anchor="start" x="431.0091" y="-42.4" font-family="sans-serif" font-weight="bold" font-size="14.00" fill="#000000">Legend</text>
<polygon fill="#ffffb3" stroke="transparent" points="218,-10 218,-30 238,-30 238,-10 218,-10"/>
<text text-anchor="start" x="241.629" y="-15.4" font-family="sans-serif" font-size="14.00" fill="#000000"> &#160;Declarations</text>
<polygon fill="#8dd3c7" stroke="transparent" points="331,-10 331,-30 351,-30 351,-10 331,-10"/>
<text text-anchor="start" x="354.7251" y="-15.4" font-family="sans-serif" font-size="14.00" fill="#000000"> &#160;Module</text>
<polygon fill="#80b1d3" stroke="transparent" points="417,-10 417,-30 437,-30 437,-10 417,-10"/>
<text text-anchor="start" x="440.7812" y="-15.4" font-family="sans-serif" font-size="14.00" fill="#000000"> &#160;Bootstrap</text>
<polygon fill="#fdb462" stroke="transparent" points="514,-10 514,-30 534,-30 534,-10 514,-10"/>
<text text-anchor="start" x="537.6732" y="-15.4" font-family="sans-serif" font-size="14.00" fill="#000000"> &#160;Providers</text>
<polygon fill="#fb8072" stroke="transparent" points="610,-10 610,-30 630,-30 630,-10 610,-10"/>
<text text-anchor="start" x="633.7258" y="-15.4" font-family="sans-serif" font-size="14.00" fill="#000000"> &#160;Exports</text>
<g id="clust1" class="cluster">
<title>cluster_StudentPanelModule</title>
<polygon fill="none" stroke="#000000" stroke-dasharray="1,5" points="8,-70 8,-195 896,-195 896,-70 8,-70"/>
</g>
<g id="clust2" class="cluster">
<title>cluster_StudentPanelModule_declarations</title>
<polygon fill="none" stroke="#000000" points="716,-78 716,-130 888,-130 888,-78 716,-78"/>
</g>
<g id="clust4" class="cluster">
<title>cluster_StudentPanelModule_imports</title>
<polygon fill="none" stroke="#000000" points="16,-78 16,-130 708,-130 708,-78 16,-78"/>
</g>
<!-- StudentPanelComponent -->
<g id="node1" class="node">
<title>StudentPanelComponent</title>
<polygon fill="#ffffb3" stroke="#000000" points="879.7133,-122 724.2867,-122 724.2867,-86 879.7133,-86 879.7133,-122"/>
<text text-anchor="middle" x="802" y="-99.8" font-family="Times,serif" font-size="14.00" fill="#000000">StudentPanelComponent</text>
</g>
<!-- StudentPanelModule -->
<g id="node2" class="node">
<title>StudentPanelModule</title>
<polygon fill="#8dd3c7" stroke="#000000" points="528.9313,-187 525.9313,-191 504.9313,-191 501.9313,-187 395.0687,-187 395.0687,-151 528.9313,-151 528.9313,-187"/>
<text text-anchor="middle" x="462" y="-164.8" font-family="Times,serif" font-size="14.00" fill="#000000">StudentPanelModule</text>
</g>
<!-- StudentPanelComponent&#45;&gt;StudentPanelModule -->
<g id="edge1" class="edge">
<title>StudentPanelComponent&#45;&gt;StudentPanelModule</title>
<path fill="none" stroke="#000000" d="M802,-122.2843C802,-143.3211 802,-175 802,-175 802,-175 538.7674,-175 538.7674,-175"/>
<polygon fill="#000000" stroke="#000000" points="538.7674,-171.5001 528.7674,-175 538.7674,-178.5001 538.7674,-171.5001"/>
</g>
<!-- CommonModule -->
<g id="node3" class="node">
<title>CommonModule</title>
<polygon fill="#8dd3c7" stroke="#000000" points="699.6681,-122 696.6681,-126 675.6681,-126 672.6681,-122 588.3319,-122 588.3319,-86 699.6681,-86 699.6681,-122"/>
<text text-anchor="middle" x="644" y="-99.8" font-family="Times,serif" font-size="14.00" fill="#000000">CommonModule</text>
</g>
<!-- CommonModule&#45;&gt;StudentPanelModule -->
<g id="edge2" class="edge">
<title>CommonModule&#45;&gt;StudentPanelModule</title>
<path fill="none" stroke="#000000" d="M644,-122.0225C644,-139.3734 644,-163 644,-163 644,-163 538.7366,-163 538.7366,-163"/>
<polygon fill="#000000" stroke="#000000" points="538.7367,-159.5001 528.7366,-163 538.7366,-166.5001 538.7367,-159.5001"/>
</g>
<!-- SharedModule -->
<g id="node4" class="node">
<title>SharedModule</title>
<polygon fill="#8dd3c7" stroke="#000000" points="570.4231,-122 567.4231,-126 546.4231,-126 543.4231,-122 471.5769,-122 471.5769,-86 570.4231,-86 570.4231,-122"/>
<text text-anchor="middle" x="521" y="-99.8" font-family="Times,serif" font-size="14.00" fill="#000000">SharedModule</text>
</g>
<!-- SharedModule&#45;&gt;StudentPanelModule -->
<g id="edge3" class="edge">
<title>SharedModule&#45;&gt;StudentPanelModule</title>
<path fill="none" stroke="#000000" d="M500.2521,-122.1061C500.2521,-122.1061 500.2521,-140.991 500.2521,-140.991"/>
<polygon fill="#000000" stroke="#000000" points="496.7522,-140.9909 500.2521,-150.991 503.7522,-140.991 496.7522,-140.9909"/>
</g>
<!-- HeaderModule -->
<g id="node5" class="node">
<title>HeaderModule</title>
<polygon fill="#8dd3c7" stroke="#000000" points="453.9608,-122 450.9608,-126 429.9608,-126 426.9608,-122 354.0392,-122 354.0392,-86 453.9608,-86 453.9608,-122"/>
<text text-anchor="middle" x="404" y="-99.8" font-family="Times,serif" font-size="14.00" fill="#000000">HeaderModule</text>
</g>
<!-- HeaderModule&#45;&gt;StudentPanelModule -->
<g id="edge4" class="edge">
<title>HeaderModule&#45;&gt;StudentPanelModule</title>
<path fill="none" stroke="#000000" d="M424.6326,-122.1061C424.6326,-122.1061 424.6326,-140.991 424.6326,-140.991"/>
<polygon fill="#000000" stroke="#000000" points="421.1326,-140.9909 424.6326,-150.991 428.1326,-140.991 421.1326,-140.9909"/>
</g>
<!-- TimetableModule -->
<g id="node6" class="node">
<title>TimetableModule</title>
<polygon fill="#8dd3c7" stroke="#000000" points="336.309,-122 333.309,-126 312.309,-126 309.309,-122 219.691,-122 219.691,-86 336.309,-86 336.309,-122"/>
<text text-anchor="middle" x="278" y="-99.8" font-family="Times,serif" font-size="14.00" fill="#000000">TimetableModule</text>
</g>
<!-- TimetableModule&#45;&gt;StudentPanelModule -->
<g id="edge5" class="edge">
<title>TimetableModule&#45;&gt;StudentPanelModule</title>
<path fill="none" stroke="#000000" d="M278,-122.0225C278,-139.3734 278,-163 278,-163 278,-163 385.0513,-163 385.0513,-163"/>
<polygon fill="#000000" stroke="#000000" points="385.0513,-166.5001 395.0513,-163 385.0512,-159.5001 385.0513,-166.5001"/>
</g>
<!-- StudentPanelRoutingModule -->
<g id="node7" class="node">
<title>StudentPanelRoutingModule</title>
<polygon fill="#8dd3c7" stroke="#000000" points="202.049,-122 199.049,-126 178.049,-126 175.049,-122 23.951,-122 23.951,-86 202.049,-86 202.049,-122"/>
<text text-anchor="middle" x="113" y="-99.8" font-family="Times,serif" font-size="14.00" fill="#000000">StudentPanelRoutingModule</text>
</g>
<!-- StudentPanelRoutingModule&#45;&gt;StudentPanelModule -->
<g id="edge6" class="edge">
<title>StudentPanelRoutingModule&#45;&gt;StudentPanelModule</title>
<path fill="none" stroke="#000000" d="M113,-122.2843C113,-143.3211 113,-175 113,-175 113,-175 385.1222,-175 385.1222,-175"/>
<polygon fill="#000000" stroke="#000000" points="385.1223,-178.5001 395.1222,-175 385.1222,-171.5001 385.1223,-178.5001"/>
</g>
</g>
</svg>
